<svg width="278" height="286" viewBox="0 0 278 286" fill="none" xmlns="http://www.w3.org/2000/svg">
<path d="M237.379 185.162L236.945 189.166L244.512 180.066C245.417 180.163 246.326 180.213 247.236 180.214" stroke="#263238" stroke-linecap="round" stroke-linejoin="round"/>
<path d="M227.899 157.546C226.905 159.09 226.281 160.854 226.081 162.694C225.363 169.346 230.434 175.638 238.096 178.55L237.707 182.125" stroke="#263238" stroke-linecap="round" stroke-linejoin="round"/>
<path d="M230.84 154.234C230.347 154.645 229.879 155.086 229.439 155.555" stroke="#263238" stroke-linecap="round" stroke-linejoin="round"/>
<path d="M259.218 154.234C255.764 151.799 251.77 150.296 247.603 149.864C243.2 149.309 238.733 149.985 234.671 151.82" stroke="#263238" stroke-linecap="round" stroke-linejoin="round"/>
<path d="M252.502 179.677C259.73 178.138 265.207 173.385 265.846 167.218C266.313 162.906 264.35 158.747 260.842 155.555" stroke="#263238" stroke-linecap="round" stroke-linejoin="round"/>
<path d="M234.676 158.656C235.288 158.773 235.917 158.765 236.525 158.631C237.134 158.498 237.711 158.242 238.224 157.878L240.926 160.034C240.737 160.097 240.753 159.685 240.954 159.674C241.154 159.662 241.304 159.851 241.443 160C242.077 160.692 243.144 160.715 244.05 160.515C244.957 160.315 245.841 159.943 246.764 159.977C247.313 160.036 247.852 160.165 248.371 160.36C252.085 161.544 255.949 162.139 259.796 162.723" stroke="#263238" stroke-linecap="round" stroke-linejoin="round"/>
<path d="M231.485 162.723C232.041 162.688 235.138 162.723 235.583 162.339L236.339 163.695L237.173 162.866C237.317 163.438 237.462 164.01 237.601 164.547C238.229 164.702 238.157 163.455 238.713 163.083C238.884 162.997 239.08 162.98 239.263 163.036C239.445 163.092 239.6 163.217 239.697 163.386C239.879 163.737 239.967 164.132 239.953 164.53L243.756 164.85L244.495 164.913C244.76 164.499 245.151 164.187 245.607 164.027C245.468 164.931 246.575 165.445 247.453 165.628C251.779 166.536 256.127 167.32 260.497 167.979" stroke="#263238" stroke-linecap="round" stroke-linejoin="round"/>
<path d="M233.175 168.935C233.526 169.186 233.954 168.717 234.382 168.66C234.81 168.603 235.16 168.935 235.538 169.135C235.916 169.335 236.539 169.249 236.561 168.814C236.65 169.386 237.34 169.592 237.901 169.672L252.502 171.783" stroke="#263238" stroke-linecap="round" stroke-linejoin="round"/>
<path d="M37.8081 149.395L43.6572 157.495L42.4841 146.895C43.8825 146.197 45.22 145.376 46.4817 144.442C52.4754 139.98 54.8884 132.801 52.6922 127.018C51.1521 122.98 47.5437 120.234 42.9845 119.096" stroke="#263238" stroke-linecap="round" stroke-linejoin="round"/>
<path d="M14.7061 136.617C14.5238 138.451 14.7678 140.304 15.4178 142.022C17.7864 148.257 25.1144 151.403 33.2098 150.316" stroke="#263238" stroke-linecap="round" stroke-linejoin="round"/>
<path d="M15.8127 132.275C15.5644 132.875 15.3509 133.49 15.1733 134.117" stroke="#263238" stroke-linecap="round" stroke-linejoin="round"/>
<path d="M40.9436 118.707C36.7837 118.196 32.5655 118.77 28.6783 120.377C24.5293 121.991 20.8799 124.726 18.1143 128.294" stroke="#263238" stroke-linecap="round" stroke-linejoin="round"/>
<path d="M21.2056 134.351C22.4016 133.968 23.4012 133.112 23.9856 131.972L27.3216 132.59C27.177 132.733 27.0102 132.361 27.1826 132.252C27.3549 132.143 27.5718 132.252 27.7386 132.309C28.617 132.618 29.5678 132.132 30.2795 131.52C30.9912 130.908 31.6028 130.147 32.4423 129.747C32.9552 129.536 33.491 129.39 34.0381 129.312C37.8633 128.591 41.5496 127.264 45.2248 125.943" stroke="#263238" stroke-linecap="round" stroke-linejoin="round"/>
<path d="M20.2163 139.482C20.7111 139.179 23.4522 137.732 23.6746 137.194L24.959 138.035C25.0813 137.658 25.2036 137.274 25.3204 136.891L26.4602 138.178C27.0885 138.018 26.4602 136.948 26.7604 136.365C26.8723 136.206 27.0384 136.098 27.2252 136.061C27.412 136.023 27.6056 136.061 27.7668 136.165C28.0843 136.384 28.3395 136.686 28.5063 137.04L32.0146 135.507L32.7041 135.209C32.7436 134.718 32.9389 134.254 33.2601 133.888C33.5492 134.763 34.7613 134.683 35.6175 134.426C39.8616 133.167 44.0669 131.783 48.2331 130.273" stroke="#263238" stroke-linecap="round" stroke-linejoin="round"/>
<path d="M24.5195 144.173C24.9477 144.23 25.1145 143.601 25.4647 143.349C25.815 143.097 26.2821 143.229 26.7046 143.217C27.1272 143.206 27.6443 142.846 27.4663 142.451C27.8055 142.914 28.5116 142.766 29.0398 142.571L42.9398 137.452" stroke="#263238" stroke-linecap="round" stroke-linejoin="round"/>
<path d="M207.349 51.2627H68.7163C66.0172 51.2627 63.8291 53.5138 63.8291 56.2906V184.773C63.8291 187.55 66.0172 189.801 68.7163 189.801H207.349C210.049 189.801 212.237 187.55 212.237 184.773V56.2906C212.237 53.5138 210.049 51.2627 207.349 51.2627Z" fill="white"/>
<path opacity="0.2" d="M212.237 127.15V184.922C212.237 186.215 211.738 187.455 210.849 188.37C209.961 189.285 208.756 189.8 207.5 189.801H68.5718C67.3139 189.801 66.1076 189.287 65.2182 188.372C64.3288 187.457 63.8291 186.216 63.8291 184.922V173.482H64.1238V181.192C64.1238 181.925 64.2642 182.651 64.537 183.328C64.8097 184.005 65.2095 184.62 65.7135 185.138C66.2175 185.656 66.8158 186.067 67.4741 186.347C68.1325 186.627 68.838 186.77 69.5503 186.769H203.763C204.476 186.77 205.181 186.627 205.839 186.347C206.498 186.067 207.096 185.656 207.6 185.138C208.104 184.62 208.504 184.005 208.777 183.328C209.049 182.651 209.19 181.925 209.19 181.192V135.718C209.19 134.688 208.792 133.701 208.084 132.972C207.376 132.244 206.416 131.835 205.415 131.835H63.8291V127.15H212.237Z" fill="black"/>
<path d="M207.349 51.2627H68.7163C66.0172 51.2627 63.8291 53.5138 63.8291 56.2906V184.773C63.8291 187.55 66.0172 189.801 68.7163 189.801H207.349C210.049 189.801 212.237 187.55 212.237 184.773V56.2906C212.237 53.5138 210.049 51.2627 207.349 51.2627Z" stroke="#263238" stroke-linecap="round" stroke-linejoin="round"/>
<path d="M199.315 143.601V136.983C199.316 136.661 199.255 136.342 199.135 136.045C199.016 135.747 198.841 135.477 198.62 135.25C198.398 135.022 198.136 134.842 197.847 134.719C197.558 134.596 197.248 134.534 196.935 134.534H79.13C78.4988 134.534 77.8935 134.792 77.4473 135.251C77.001 135.711 76.7503 136.333 76.7503 136.983V143.601C76.7503 144.25 76.4996 144.873 76.0533 145.332C75.607 145.791 75.0017 146.049 74.3706 146.049V146.049C73.738 146.049 73.1313 146.307 72.684 146.768C72.2367 147.228 71.9854 147.852 71.9854 148.503V161.561C71.9854 164.573 73.1481 167.461 75.2179 169.59C77.2877 171.719 80.0949 172.916 83.022 172.916V172.916C83.4924 172.916 83.9435 173.108 84.2761 173.45C84.6087 173.792 84.7956 174.256 84.7956 174.74V178.653C84.7956 180.097 85.3533 181.482 86.3459 182.503C87.3386 183.525 88.6849 184.098 90.0887 184.098H185.976C187.38 184.098 188.727 183.525 189.719 182.503C190.712 181.482 191.27 180.097 191.27 178.653V174.74C191.27 174.256 191.456 173.792 191.789 173.45C192.122 173.108 192.573 172.916 193.043 172.916C194.493 172.916 195.928 172.622 197.267 172.051C198.606 171.481 199.822 170.644 200.847 169.59C201.872 168.536 202.685 167.284 203.24 165.907C203.794 164.529 204.08 163.053 204.08 161.561V148.503C204.08 147.853 203.829 147.23 203.383 146.77C202.937 146.31 202.332 146.05 201.7 146.049C201.069 146.049 200.463 145.791 200.015 145.332C199.568 144.873 199.316 144.25 199.315 143.601V143.601Z" fill="#263238"/>
<path d="M85.7744 138.281H81.6544C81.1501 138.281 80.6665 138.487 80.3099 138.854C79.9533 139.221 79.7529 139.718 79.7529 140.237V141.324C79.7529 143.578 81.5266 146.438 83.7172 146.438C85.9079 146.438 87.6815 143.578 87.6815 141.324V140.237C87.68 139.718 87.4784 139.22 87.121 138.854C86.7635 138.487 86.2792 138.281 85.7744 138.281V138.281Z" fill="white" stroke="#263238" stroke-linecap="round" stroke-linejoin="round"/>
<path d="M95.632 138.281H91.5121C91.0072 138.281 90.523 138.487 90.1655 138.854C89.808 139.22 89.6065 139.718 89.605 140.237V141.324C89.605 143.578 91.3786 146.438 93.5693 146.438C95.7599 146.438 97.5335 143.578 97.5335 141.324V140.237C97.5335 139.718 97.3332 139.221 96.9766 138.854C96.62 138.487 96.1363 138.281 95.632 138.281V138.281Z" fill="white" stroke="#263238" stroke-linecap="round" stroke-linejoin="round"/>
<path d="M105.529 138.281H101.409C100.905 138.281 100.421 138.487 100.064 138.854C99.7077 139.221 99.5073 139.718 99.5073 140.237V141.324C99.5073 143.578 101.281 146.438 103.466 146.438C105.651 146.438 107.43 143.578 107.43 141.324V140.237C107.43 139.718 107.23 139.221 106.873 138.854C106.517 138.487 106.033 138.281 105.529 138.281V138.281Z" fill="white" stroke="#263238" stroke-linecap="round" stroke-linejoin="round"/>
<path d="M115.404 138.281H111.284C110.78 138.281 110.296 138.487 109.939 138.854C109.583 139.221 109.382 139.718 109.382 140.237V141.324C109.382 143.578 111.156 146.438 113.347 146.438C115.537 146.438 117.305 143.578 117.305 141.324V140.237C117.305 139.98 117.256 139.726 117.161 139.489C117.065 139.251 116.925 139.036 116.748 138.854C116.572 138.672 116.362 138.528 116.131 138.43C115.901 138.332 115.654 138.281 115.404 138.281V138.281Z" fill="white" stroke="#263238" stroke-linecap="round" stroke-linejoin="round"/>
<path d="M125.278 138.281H121.158C120.654 138.281 120.17 138.487 119.814 138.854C119.457 139.221 119.257 139.718 119.257 140.237V141.324C119.257 143.578 121.03 146.438 123.221 146.438C125.412 146.438 127.185 143.578 127.185 141.324V140.237C127.184 139.718 126.982 139.22 126.625 138.854C126.267 138.487 125.783 138.281 125.278 138.281V138.281Z" fill="white" stroke="#263238" stroke-linecap="round" stroke-linejoin="round"/>
<path d="M135.158 138.281H131.038C130.534 138.281 130.049 138.487 129.692 138.854C129.334 139.22 129.133 139.718 129.131 140.237V141.324C129.131 143.578 130.905 146.438 133.096 146.438C135.286 146.438 137.06 143.578 137.06 141.324V140.237C137.06 139.718 136.86 139.221 136.503 138.854C136.146 138.487 135.663 138.281 135.158 138.281V138.281Z" fill="white" stroke="#263238" stroke-linecap="round" stroke-linejoin="round"/>
<path d="M145.033 138.281H140.913C140.408 138.281 139.925 138.487 139.568 138.854C139.212 139.221 139.011 139.718 139.011 140.237V141.324C139.011 143.578 140.785 146.438 142.97 146.438C145.155 146.438 146.934 143.578 146.934 141.324V140.237C146.934 139.718 146.734 139.221 146.377 138.854C146.021 138.487 145.537 138.281 145.033 138.281V138.281Z" fill="white" stroke="#263238" stroke-linecap="round" stroke-linejoin="round"/>
<path d="M154.907 138.281H150.787C150.283 138.281 149.799 138.487 149.443 138.854C149.086 139.221 148.886 139.718 148.886 140.237V141.324C148.886 143.578 150.659 146.438 152.85 146.438C155.041 146.438 156.809 143.578 156.809 141.324V140.237C156.809 139.718 156.608 139.221 156.252 138.854C155.895 138.487 155.412 138.281 154.907 138.281V138.281Z" fill="white" stroke="#263238" stroke-linecap="round" stroke-linejoin="round"/>
<path d="M164.782 138.281H160.684C160.435 138.281 160.187 138.332 159.957 138.43C159.726 138.528 159.516 138.672 159.34 138.854C159.163 139.036 159.023 139.251 158.927 139.489C158.832 139.726 158.783 139.98 158.783 140.237V141.324C158.783 143.578 160.556 146.438 162.747 146.438C164.938 146.438 166.711 143.578 166.711 141.324V140.237C166.711 139.978 166.66 139.722 166.562 139.483C166.465 139.244 166.322 139.027 166.143 138.845C165.964 138.664 165.751 138.52 165.517 138.423C165.284 138.326 165.034 138.278 164.782 138.281V138.281Z" fill="white" stroke="#263238" stroke-linecap="round" stroke-linejoin="round"/>
<path d="M174.662 138.281H170.542C170.038 138.281 169.553 138.487 169.196 138.854C168.838 139.22 168.637 139.718 168.635 140.237V141.324C168.635 143.578 170.409 146.438 172.6 146.438C174.79 146.438 176.564 143.578 176.564 141.324V140.237C176.564 139.718 176.363 139.221 176.007 138.854C175.65 138.487 175.167 138.281 174.662 138.281V138.281Z" fill="white" stroke="#263238" stroke-linecap="round" stroke-linejoin="round"/>
<path d="M184.537 138.281H180.417C179.912 138.281 179.429 138.487 179.072 138.854C178.715 139.221 178.515 139.718 178.515 140.237V141.324C178.515 143.578 180.289 146.438 182.474 146.438C184.659 146.438 186.438 143.578 186.438 141.324V140.237C186.438 139.718 186.238 139.221 185.881 138.854C185.525 138.487 185.041 138.281 184.537 138.281V138.281Z" fill="white" stroke="#263238" stroke-linecap="round" stroke-linejoin="round"/>
<path d="M194.411 138.281H190.291C189.787 138.281 189.303 138.487 188.947 138.854C188.59 139.221 188.39 139.718 188.39 140.237V141.324C188.39 143.572 190.152 146.432 192.376 146.432C194.6 146.432 196.335 143.572 196.335 141.318V140.232C196.334 139.973 196.284 139.718 196.186 139.479C196.089 139.241 195.947 139.025 195.768 138.844C195.589 138.662 195.377 138.519 195.144 138.423C194.911 138.326 194.662 138.278 194.411 138.281V138.281Z" fill="white" stroke="#263238" stroke-linecap="round" stroke-linejoin="round"/>
<path d="M85.7744 159.811H81.6544C81.1501 159.811 80.6665 160.017 80.3099 160.384C79.9533 160.751 79.7529 161.248 79.7529 161.767V162.854C79.7529 165.108 81.5266 167.968 83.7172 167.968C85.9079 167.968 87.6815 165.108 87.6815 162.854V161.767C87.68 161.248 87.4784 160.75 87.121 160.384C86.7635 160.017 86.2792 159.811 85.7744 159.811V159.811Z" fill="white" stroke="#263238" stroke-linecap="round" stroke-linejoin="round"/>
<path d="M95.632 159.811H91.5121C91.0072 159.811 90.523 160.017 90.1655 160.384C89.808 160.75 89.6065 161.248 89.605 161.767V162.854C89.605 165.108 91.3786 167.968 93.5693 167.968C95.7599 167.968 97.5335 165.108 97.5335 162.854V161.767C97.5335 161.248 97.3332 160.751 96.9766 160.384C96.62 160.017 96.1363 159.811 95.632 159.811V159.811Z" fill="white" stroke="#263238" stroke-linecap="round" stroke-linejoin="round"/>
<path d="M105.529 159.811H101.409C100.905 159.811 100.421 160.017 100.064 160.384C99.7077 160.751 99.5073 161.248 99.5073 161.767V162.854C99.5073 165.108 101.281 167.968 103.466 167.968C105.651 167.968 107.43 165.108 107.43 162.854V161.767C107.43 161.248 107.23 160.751 106.873 160.384C106.517 160.017 106.033 159.811 105.529 159.811V159.811Z" fill="white" stroke="#263238" stroke-linecap="round" stroke-linejoin="round"/>
<path d="M115.404 159.811H111.284C110.78 159.811 110.296 160.017 109.939 160.384C109.583 160.751 109.382 161.248 109.382 161.767V162.854C109.382 165.108 111.156 167.968 113.347 167.968C115.537 167.968 117.305 165.108 117.305 162.854V161.767C117.305 161.51 117.256 161.256 117.161 161.019C117.065 160.781 116.925 160.566 116.748 160.384C116.572 160.202 116.362 160.058 116.131 159.96C115.901 159.862 115.654 159.811 115.404 159.811V159.811Z" fill="white" stroke="#263238" stroke-linecap="round" stroke-linejoin="round"/>
<path d="M125.278 159.811H121.158C120.654 159.811 120.17 160.017 119.814 160.384C119.457 160.751 119.257 161.248 119.257 161.767V162.854C119.257 165.108 121.03 167.968 123.221 167.968C125.412 167.968 127.185 165.108 127.185 162.854V161.767C127.184 161.248 126.982 160.75 126.625 160.384C126.267 160.017 125.783 159.811 125.278 159.811V159.811Z" fill="white" stroke="#263238" stroke-linecap="round" stroke-linejoin="round"/>
<path d="M135.158 159.811H131.038C130.534 159.811 130.049 160.017 129.692 160.384C129.334 160.75 129.133 161.248 129.131 161.767V162.854C129.131 165.108 130.905 167.968 133.096 167.968C135.286 167.968 137.06 165.108 137.06 162.854V161.767C137.06 161.248 136.86 160.751 136.503 160.384C136.146 160.017 135.663 159.811 135.158 159.811Z" fill="white" stroke="#263238" stroke-linecap="round" stroke-linejoin="round"/>
<path d="M145.033 159.811H140.913C140.408 159.811 139.925 160.017 139.568 160.384C139.212 160.751 139.011 161.248 139.011 161.767V162.854C139.011 165.108 140.785 167.968 142.97 167.968C145.155 167.968 146.934 165.108 146.934 162.854V161.767C146.934 161.248 146.734 160.751 146.377 160.384C146.021 160.017 145.537 159.811 145.033 159.811V159.811Z" fill="white" stroke="#263238" stroke-linecap="round" stroke-linejoin="round"/>
<path d="M154.907 159.811H150.787C150.283 159.811 149.799 160.017 149.443 160.384C149.086 160.751 148.886 161.248 148.886 161.767V162.854C148.886 165.108 150.659 167.968 152.85 167.968C155.041 167.968 156.809 165.108 156.809 162.854V161.767C156.809 161.248 156.608 160.751 156.252 160.384C155.895 160.017 155.412 159.811 154.907 159.811V159.811Z" fill="white" stroke="#263238" stroke-linecap="round" stroke-linejoin="round"/>
<path d="M164.782 159.811H160.684C160.435 159.811 160.187 159.862 159.957 159.96C159.726 160.058 159.516 160.202 159.34 160.384C159.163 160.566 159.023 160.781 158.927 161.019C158.832 161.256 158.783 161.51 158.783 161.767V162.854C158.783 165.108 160.556 167.968 162.747 167.968C164.938 167.968 166.711 165.108 166.711 162.854V161.767C166.711 161.508 166.66 161.252 166.562 161.013C166.465 160.774 166.322 160.558 166.143 160.376C165.964 160.194 165.751 160.05 165.517 159.953C165.284 159.856 165.034 159.808 164.782 159.811V159.811Z" fill="white" stroke="#263238" stroke-linecap="round" stroke-linejoin="round"/>
<path d="M174.662 159.811H170.542C170.038 159.811 169.553 160.017 169.196 160.384C168.838 160.75 168.637 161.248 168.635 161.767V162.854C168.635 165.108 170.409 167.968 172.6 167.968C174.79 167.968 176.564 165.108 176.564 162.854V161.767C176.564 161.248 176.363 160.751 176.007 160.384C175.65 160.017 175.167 159.811 174.662 159.811V159.811Z" fill="white" stroke="#263238" stroke-linecap="round" stroke-linejoin="round"/>
<path d="M184.537 159.811H180.417C179.912 159.811 179.429 160.017 179.072 160.384C178.715 160.751 178.515 161.248 178.515 161.767V162.854C178.515 165.108 180.289 167.968 182.474 167.968C184.659 167.968 186.438 165.108 186.438 162.854V161.767C186.438 161.248 186.238 160.751 185.881 160.384C185.525 160.017 185.041 159.811 184.537 159.811Z" fill="white" stroke="#263238" stroke-linecap="round" stroke-linejoin="round"/>
<path d="M194.411 159.811H190.291C189.787 159.811 189.303 160.017 188.947 160.384C188.59 160.751 188.39 161.248 188.39 161.767V162.854C188.39 165.108 190.163 167.968 192.354 167.968C194.545 167.968 196.313 165.108 196.313 162.854V161.767C196.313 161.248 196.112 160.751 195.756 160.384C195.399 160.017 194.915 159.811 194.411 159.811V159.811Z" fill="white" stroke="#263238" stroke-linecap="round" stroke-linejoin="round"/>
<path d="M80.837 149.395H76.7282C76.2239 149.395 75.7402 149.601 75.3836 149.968C75.027 150.335 74.8267 150.832 74.8267 151.351V152.438C74.8267 154.686 76.6003 157.552 78.7909 157.552C80.9816 157.552 82.7497 154.692 82.7497 152.438V151.351C82.7497 151.093 82.7001 150.838 82.6039 150.6C82.5076 150.362 82.3665 150.146 82.1888 149.964C82.011 149.782 81.8001 149.638 81.5681 149.541C81.3361 149.443 81.0877 149.393 80.837 149.395V149.395Z" fill="white" stroke="#263238" stroke-linecap="round" stroke-linejoin="round"/>
<path d="M90.7114 149.395H86.5915C86.0871 149.395 85.6035 149.601 85.2469 149.968C84.8903 150.335 84.6899 150.832 84.6899 151.351V152.438C84.6899 154.686 86.4636 157.552 88.6542 157.552C90.8449 157.552 92.6185 154.692 92.6185 152.438V151.351C92.617 150.832 92.4155 150.334 92.058 149.968C91.7005 149.601 91.2162 149.395 90.7114 149.395V149.395Z" fill="white" stroke="#263238" stroke-linecap="round" stroke-linejoin="round"/>
<path d="M100.591 149.395H96.4715C95.9667 149.395 95.4825 149.601 95.125 149.968C94.7675 150.334 94.5659 150.832 94.5645 151.351V152.438C94.5645 154.686 96.3437 157.552 98.5287 157.552C100.714 157.552 102.493 154.692 102.493 152.438V151.351C102.493 150.832 102.293 150.335 101.936 149.968C101.579 149.601 101.096 149.395 100.591 149.395V149.395Z" fill="white" stroke="#263238" stroke-linecap="round" stroke-linejoin="round"/>
<path d="M110.466 149.395H106.346C105.842 149.395 105.358 149.601 105.002 149.968C104.645 150.335 104.445 150.832 104.445 151.351V152.438C104.445 154.686 106.218 157.552 108.404 157.552C110.589 157.552 112.368 154.692 112.368 152.438V151.351C112.368 151.094 112.319 150.84 112.223 150.603C112.128 150.365 111.987 150.15 111.811 149.968C111.634 149.786 111.425 149.642 111.194 149.544C110.963 149.446 110.716 149.395 110.466 149.395V149.395Z" fill="white" stroke="#263238" stroke-linecap="round" stroke-linejoin="round"/>
<path d="M120.341 149.395H116.204C115.7 149.395 115.216 149.601 114.86 149.968C114.503 150.335 114.303 150.832 114.303 151.351V152.438C114.303 154.686 116.076 157.552 118.267 157.552C120.458 157.552 122.226 154.692 122.226 152.438V151.351C122.226 150.835 122.028 150.34 121.675 149.974C121.322 149.608 120.842 149.4 120.341 149.395V149.395Z" fill="white" stroke="#263238" stroke-linecap="round" stroke-linejoin="round"/>
<path d="M130.215 149.395H126.095C125.591 149.395 125.107 149.601 124.751 149.968C124.394 150.335 124.194 150.832 124.194 151.351V152.438C124.194 154.686 125.967 157.552 128.158 157.552C130.349 157.552 132.122 154.692 132.122 152.438V151.351C132.121 150.832 131.919 150.334 131.562 149.968C131.204 149.601 130.72 149.395 130.215 149.395V149.395Z" fill="white" stroke="#263238" stroke-linecap="round" stroke-linejoin="round"/>
<path d="M140.112 149.395H135.992C135.487 149.395 135.003 149.601 134.645 149.968C134.288 150.334 134.086 150.832 134.085 151.351V152.438C134.085 154.686 135.864 157.552 138.049 157.552C140.234 157.552 142.014 154.692 142.014 152.438V151.351C142.014 150.832 141.813 150.335 141.457 149.968C141.1 149.601 140.616 149.395 140.112 149.395V149.395Z" fill="white" stroke="#263238" stroke-linecap="round" stroke-linejoin="round"/>
<path d="M149.97 149.395H145.85C145.346 149.395 144.862 149.601 144.506 149.968C144.149 150.335 143.949 150.832 143.949 151.351V152.438C143.949 154.686 145.722 157.552 147.907 157.552C150.093 157.552 151.872 154.692 151.872 152.438V151.351C151.872 150.832 151.671 150.335 151.315 149.968C150.958 149.601 150.475 149.395 149.97 149.395Z" fill="white" stroke="#263238" stroke-linecap="round" stroke-linejoin="round"/>
<path d="M159.845 149.395H155.725C155.22 149.395 154.737 149.601 154.38 149.968C154.024 150.335 153.823 150.832 153.823 151.351V152.438C153.823 154.686 155.597 157.552 157.788 157.552C159.978 157.552 161.746 154.692 161.746 152.438V151.351C161.746 150.832 161.546 150.335 161.189 149.968C160.833 149.601 160.349 149.395 159.845 149.395Z" fill="white" stroke="#263238" stroke-linecap="round" stroke-linejoin="round"/>
<path d="M169.719 149.395H165.599C165.095 149.395 164.611 149.601 164.255 149.968C163.898 150.335 163.698 150.832 163.698 151.351V152.438C163.698 154.686 165.471 157.552 167.662 157.552C169.853 157.552 171.626 154.692 171.626 152.438V151.351C171.625 150.832 171.423 150.334 171.066 149.968C170.708 149.601 170.224 149.395 169.719 149.395V149.395Z" fill="white" stroke="#263238" stroke-linecap="round" stroke-linejoin="round"/>
<path d="M179.588 149.395H175.468C174.963 149.395 174.479 149.601 174.122 149.968C173.764 150.334 173.563 150.832 173.561 151.351V152.438C173.561 154.686 175.34 157.552 177.525 157.552C179.71 157.552 181.49 154.692 181.49 152.438V151.351C181.49 150.832 181.289 150.335 180.933 149.968C180.576 149.601 180.092 149.395 179.588 149.395Z" fill="white" stroke="#263238" stroke-linecap="round" stroke-linejoin="round"/>
<path d="M189.474 149.395H185.354C184.855 149.402 184.378 149.612 184.028 149.978C183.677 150.344 183.48 150.837 183.48 151.351V152.438C183.48 154.686 185.254 157.552 187.439 157.552C189.624 157.552 191.403 154.692 191.403 152.438V151.351C191.403 151.092 191.353 150.835 191.256 150.596C191.159 150.357 191.016 150.14 190.837 149.958C190.657 149.776 190.444 149.632 190.21 149.536C189.976 149.439 189.726 149.391 189.474 149.395V149.395Z" fill="white" stroke="#263238" stroke-linecap="round" stroke-linejoin="round"/>
<path d="M199.349 149.395H195.229C194.724 149.395 194.241 149.601 193.884 149.968C193.527 150.335 193.327 150.832 193.327 151.351V152.438C193.327 154.686 195.101 157.552 197.291 157.552C199.482 157.552 201.25 154.692 201.25 152.438V151.351C201.25 150.832 201.05 150.335 200.693 149.968C200.337 149.601 199.853 149.395 199.349 149.395V149.395Z" fill="white" stroke="#263238" stroke-linecap="round" stroke-linejoin="round"/>
<path d="M175.752 170.656H100.314C99.3279 170.656 98.5288 171.478 98.5288 172.492V178.064C98.5288 179.078 99.3279 179.9 100.314 179.9H175.752C176.737 179.9 177.536 179.078 177.536 178.064V172.492C177.536 171.478 176.737 170.656 175.752 170.656Z" fill="white" stroke="#263238" stroke-linecap="round" stroke-linejoin="round"/>
<path d="M185.854 171.2H181.735C181.23 171.2 180.747 171.406 180.39 171.773C180.033 172.139 179.833 172.637 179.833 173.156V174.243C179.833 176.496 181.607 179.356 183.797 179.356C185.988 179.356 187.756 176.496 187.756 174.243V173.156C187.756 172.637 187.556 172.139 187.199 171.773C186.842 171.406 186.359 171.2 185.854 171.2Z" fill="white" stroke="#263238" stroke-linecap="round" stroke-linejoin="round"/>
<path d="M94.3311 171.2H90.2111C89.7068 171.2 89.2231 171.406 88.8665 171.773C88.5099 172.139 88.3096 172.637 88.3096 173.156V174.243C88.3096 176.496 90.0832 179.356 92.2739 179.356C94.4645 179.356 96.2381 176.496 96.2381 174.243V173.156C96.2367 172.636 96.0351 172.139 95.6776 171.772C95.3201 171.406 94.8359 171.2 94.3311 171.2V171.2Z" fill="white" stroke="#263238" stroke-linecap="round" stroke-linejoin="round"/>
<path opacity="0.2" d="M86.002 141.387C86.2016 141.388 86.4007 141.407 86.597 141.444C86.597 141.404 86.597 141.364 86.597 141.324V140.237C86.5955 140.012 86.5076 139.797 86.3524 139.638C86.1972 139.48 85.9873 139.391 85.7685 139.391H81.6486C81.4308 139.392 81.2223 139.482 81.0683 139.64C80.9143 139.799 80.8271 140.013 80.8257 140.237V141.324C80.8257 142.886 81.9377 144.853 83.2498 145.248C82.844 143.515 83.7558 141.387 86.002 141.387Z" fill="black"/>
<path opacity="0.2" d="M96.0993 141.095C96.2251 141.086 96.3515 141.086 96.4773 141.095V140.214C96.4759 139.99 96.3887 139.776 96.2347 139.617C96.0807 139.459 95.8722 139.369 95.6544 139.368H91.5345C91.3157 139.368 91.1059 139.457 90.9507 139.615C90.7954 139.774 90.7075 139.989 90.7061 140.214V141.301C90.7061 143.017 92.0238 145.162 93.4861 145.305C92.8133 143.532 93.6973 141.095 96.0993 141.095Z" fill="black"/>
<path opacity="0.2" d="M106.268 140.947H106.352V140.232C106.352 140.007 106.265 139.792 106.111 139.633C105.957 139.474 105.747 139.385 105.529 139.385H101.409C101.19 139.385 100.98 139.474 100.825 139.633C100.67 139.791 100.582 140.007 100.581 140.232V141.318C100.581 143.063 101.982 145.322 103.466 145.322C103.538 145.328 103.611 145.328 103.683 145.322C102.938 143.515 103.8 140.947 106.268 140.947Z" fill="black"/>
<path opacity="0.2" d="M115.515 140.655C115.746 140.648 115.977 140.667 116.204 140.712V140.214C116.204 139.99 116.117 139.775 115.963 139.616C115.809 139.457 115.6 139.368 115.381 139.368H111.261C111.043 139.368 110.834 139.457 110.679 139.616C110.525 139.775 110.438 139.99 110.438 140.214V141.301C110.438 142.937 111.662 145.019 113.041 145.305C112.095 143.509 112.913 140.655 115.515 140.655Z" fill="black"/>
<path opacity="0.2" d="M125.895 140.655H126.107V140.226C126.105 140.001 126.017 139.785 125.862 139.627C125.707 139.468 125.497 139.379 125.278 139.379H121.158C120.941 139.381 120.732 139.47 120.578 139.629C120.424 139.787 120.337 140.002 120.335 140.226V141.313C120.335 143.057 121.737 145.317 123.221 145.317C123.297 145.322 123.373 145.322 123.449 145.317C122.476 143.515 123.293 140.655 125.895 140.655Z" fill="black"/>
<path opacity="0.2" d="M135.853 140.712H135.981V140.214C135.98 139.99 135.893 139.776 135.739 139.617C135.585 139.459 135.376 139.369 135.158 139.368H131.038C130.82 139.368 130.61 139.457 130.455 139.615C130.299 139.774 130.211 139.989 130.21 140.214V141.301C130.21 143.046 131.611 145.305 133.096 145.305C133.186 145.314 133.277 145.314 133.368 145.305C132.456 143.503 133.285 140.712 135.853 140.712Z" fill="black"/>
<path opacity="0.2" d="M145.383 140.655C145.541 140.657 145.699 140.669 145.856 140.689V140.237C145.856 140.013 145.769 139.797 145.615 139.639C145.46 139.48 145.251 139.391 145.033 139.391H140.913C140.694 139.391 140.485 139.48 140.331 139.639C140.177 139.797 140.09 140.013 140.09 140.237V141.324C140.09 143.04 141.469 145.294 142.942 145.328C141.958 143.532 142.77 140.655 145.383 140.655Z" fill="black"/>
<path opacity="0.2" d="M155.73 140.804V140.232C155.73 140.007 155.643 139.792 155.489 139.633C155.335 139.474 155.125 139.385 154.907 139.385H150.787C150.569 139.385 150.36 139.474 150.205 139.633C150.051 139.792 149.964 140.007 149.964 140.232V141.318C149.964 143.063 151.36 145.322 152.85 145.322C152.999 145.32 153.147 145.295 153.289 145.248C152.489 143.486 153.306 140.884 155.73 140.804Z" fill="black"/>
<path opacity="0.2" d="M164.799 140.581C165.073 140.58 165.346 140.616 165.61 140.689V140.237C165.609 140.012 165.521 139.797 165.366 139.638C165.211 139.48 165.001 139.391 164.782 139.391H160.684C160.466 139.392 160.258 139.482 160.104 139.64C159.95 139.799 159.863 140.013 159.861 140.237V141.324C159.861 142.937 161.051 144.973 162.402 145.282C161.363 143.492 162.169 140.581 164.799 140.581Z" fill="black"/>
<path opacity="0.2" d="M174.896 140.581C175.094 140.581 175.291 140.6 175.485 140.638V140.237C175.484 140.013 175.397 139.799 175.243 139.64C175.089 139.482 174.88 139.392 174.662 139.391H170.542C170.324 139.391 170.114 139.48 169.958 139.638C169.803 139.797 169.715 140.012 169.714 140.237V141.324C169.714 143.04 171.048 145.219 172.494 145.328C171.449 143.532 172.249 140.581 174.896 140.581Z" fill="black"/>
<path opacity="0.2" d="M184.926 140.872C185.071 140.875 185.216 140.886 185.359 140.907V140.237C185.359 140.013 185.273 139.797 185.118 139.639C184.964 139.48 184.755 139.391 184.537 139.391H180.417C180.309 139.391 180.202 139.413 180.102 139.455C180.002 139.498 179.911 139.56 179.835 139.639C179.758 139.717 179.698 139.811 179.656 139.913C179.615 140.016 179.594 140.126 179.594 140.237V141.324C179.594 143.04 180.928 145.214 182.374 145.328C181.568 143.521 182.418 140.872 184.926 140.872Z" fill="black"/>
<path opacity="0.2" d="M195.234 140.741V140.237C195.234 140.013 195.147 139.797 194.993 139.639C194.839 139.48 194.629 139.391 194.411 139.391H190.291C190.073 139.391 189.864 139.48 189.709 139.639C189.555 139.797 189.468 140.013 189.468 140.237V141.324C189.468 143.069 190.864 145.328 192.354 145.328C192.568 145.325 192.78 145.278 192.977 145.191C192.187 143.463 192.932 140.935 195.234 140.741Z" fill="black"/>
<path opacity="0.2" d="M86.2859 161.876C86.3915 161.87 86.4973 161.87 86.6028 161.876V161.756C86.6013 161.531 86.5134 161.315 86.3582 161.157C86.203 160.998 85.9931 160.909 85.7744 160.909H81.6544C81.4366 160.911 81.2282 161 81.0742 161.159C80.9202 161.317 80.833 161.532 80.8315 161.756V162.843C80.8315 164.587 82.2327 166.847 83.7172 166.847C83.8199 166.844 83.9222 166.833 84.023 166.812C82.7775 165.073 83.5337 161.876 86.2859 161.876Z" fill="black"/>
<path opacity="0.2" d="M95.9603 161.876C96.1335 161.877 96.3065 161.892 96.4773 161.922V161.773C96.4759 161.549 96.3887 161.335 96.2347 161.176C96.0807 161.018 95.8722 160.928 95.6544 160.927H91.5345C91.3157 160.927 91.1059 161.016 90.9507 161.174C90.7954 161.333 90.7075 161.548 90.7061 161.773V162.86C90.7061 164.604 92.1072 166.864 93.5917 166.864H93.714C92.4408 165.102 93.1914 161.876 95.9603 161.876Z" fill="black"/>
<path opacity="0.2" d="M105.774 162.019C105.96 162.019 106.146 162.037 106.33 162.071V161.767C106.33 161.656 106.309 161.546 106.267 161.443C106.226 161.341 106.165 161.247 106.089 161.169C106.012 161.09 105.922 161.028 105.822 160.985C105.722 160.943 105.615 160.921 105.507 160.921H101.387C101.168 160.921 100.958 161.01 100.803 161.168C100.648 161.327 100.56 161.542 100.559 161.767V162.854C100.559 164.57 101.937 166.818 103.411 166.858C102.304 165.079 103.077 162.019 105.774 162.019Z" fill="black"/>
<path opacity="0.2" d="M115.799 162.093C115.942 162.094 116.085 162.103 116.227 162.122V161.767C116.227 161.656 116.205 161.546 116.164 161.443C116.123 161.341 116.062 161.247 115.986 161.169C115.909 161.09 115.819 161.028 115.719 160.985C115.619 160.943 115.512 160.921 115.404 160.921H111.284C111.176 160.921 111.069 160.943 110.969 160.985C110.869 161.028 110.778 161.09 110.702 161.169C110.626 161.247 110.565 161.341 110.524 161.443C110.482 161.546 110.461 161.656 110.461 161.767V162.854C110.461 164.599 111.856 166.858 113.347 166.858H113.413C112.346 165.068 113.141 162.093 115.799 162.093Z" fill="black"/>
<path opacity="0.2" d="M125.473 161.876C125.686 161.876 125.898 161.897 126.107 161.939V161.773C126.105 161.548 126.017 161.333 125.862 161.174C125.707 161.016 125.497 160.927 125.278 160.927H121.158C120.941 160.928 120.732 161.018 120.578 161.176C120.424 161.335 120.337 161.549 120.335 161.773V162.86C120.335 164.604 121.737 166.864 123.221 166.864C121.953 165.114 122.698 161.876 125.473 161.876Z" fill="black"/>
<path opacity="0.2" d="M135.498 161.945C135.659 161.946 135.821 161.959 135.981 161.985V161.767C135.98 161.543 135.893 161.329 135.739 161.17C135.585 161.012 135.376 160.922 135.158 160.921H131.038C130.82 160.921 130.61 161.01 130.455 161.168C130.299 161.327 130.211 161.542 130.21 161.767V162.854C130.21 164.599 131.611 166.858 133.096 166.858H133.201C132 165.085 132.768 161.945 135.498 161.945Z" fill="black"/>
<path opacity="0.2" d="M145.739 162.162H145.856V161.762C145.856 161.537 145.769 161.322 145.615 161.163C145.46 161.004 145.251 160.915 145.033 160.915H140.913C140.694 160.915 140.485 161.004 140.331 161.163C140.177 161.322 140.09 161.537 140.09 161.762V162.848C140.09 164.593 141.485 166.852 142.97 166.852C143.078 166.851 143.187 166.837 143.292 166.812C142.336 165.028 143.131 162.162 145.739 162.162Z" fill="black"/>
<path opacity="0.2" d="M155.68 161.945H155.713V161.767C155.713 161.656 155.692 161.546 155.651 161.443C155.609 161.341 155.549 161.247 155.472 161.169C155.396 161.09 155.305 161.028 155.205 160.985C155.106 160.943 154.999 160.921 154.891 160.921H150.787C150.679 160.921 150.572 160.943 150.472 160.985C150.373 161.028 150.282 161.09 150.205 161.169C150.129 161.247 150.068 161.341 150.027 161.443C149.986 161.546 149.964 161.656 149.964 161.767V162.854C149.964 164.599 151.36 166.858 152.85 166.858C153.021 166.856 153.189 166.825 153.35 166.767C152.222 164.993 153.006 161.945 155.68 161.945Z" fill="black"/>
<path opacity="0.2" d="M165.293 161.727H165.605C165.596 161.508 165.506 161.301 165.353 161.149C165.199 160.996 164.995 160.911 164.782 160.909H160.684C160.466 160.911 160.258 161 160.104 161.159C159.95 161.317 159.863 161.532 159.861 161.756V162.843C159.861 164.587 161.262 166.847 162.747 166.847C162.882 166.842 163.017 166.821 163.147 166.784C161.752 165.079 162.475 161.727 165.293 161.727Z" fill="black"/>
<path opacity="0.2" d="M175.468 161.876V161.773C175.467 161.549 175.379 161.335 175.225 161.176C175.071 161.018 174.863 160.928 174.645 160.927H170.525C170.306 160.927 170.097 161.016 169.941 161.174C169.786 161.333 169.698 161.548 169.697 161.773V162.86C169.697 164.604 171.098 166.864 172.582 166.864C172.772 166.861 172.96 166.826 173.138 166.761C171.976 164.988 172.744 161.876 175.468 161.876Z" fill="black"/>
<path opacity="0.2" d="M185.148 161.876H185.371V161.762C185.371 161.65 185.349 161.54 185.308 161.438C185.267 161.335 185.206 161.242 185.13 161.163C185.053 161.084 184.963 161.022 184.863 160.979C184.763 160.937 184.656 160.915 184.548 160.915H180.428C180.21 160.915 180 161.004 179.846 161.163C179.692 161.322 179.605 161.537 179.605 161.762V162.848C179.605 164.593 181.001 166.852 182.485 166.852C182.617 166.851 182.747 166.831 182.874 166.795C181.634 165.045 182.396 161.876 185.148 161.876Z" fill="black"/>
<path opacity="0.2" d="M194.878 162.311C195 162.311 195.123 162.311 195.234 162.311V161.739C195.234 161.514 195.147 161.299 194.993 161.14C194.839 160.981 194.629 160.892 194.411 160.892H190.291C190.073 160.892 189.864 160.981 189.709 161.14C189.555 161.299 189.468 161.514 189.468 161.739V162.826C189.468 164.57 190.864 166.83 192.354 166.83C191.492 165.056 192.326 162.311 194.878 162.311Z" fill="black"/>
<path opacity="0.2" d="M81.5932 151.631H81.6654V151.351C81.664 151.126 81.576 150.911 81.4208 150.752C81.2656 150.594 81.0557 150.505 80.837 150.505H76.7282C76.5099 150.505 76.3006 150.594 76.1463 150.753C75.992 150.911 75.9053 151.127 75.9053 151.351V152.438C75.9053 154.183 77.3008 156.442 78.7909 156.442C78.9341 156.438 79.0762 156.415 79.2135 156.373C78.146 154.589 78.9522 151.631 81.5932 151.631Z" fill="black"/>
<path opacity="0.2" d="M91.2618 151.631H91.5398V151.34C91.5384 151.115 91.4504 150.899 91.2952 150.741C91.14 150.582 90.9301 150.493 90.7114 150.493H86.5914C86.3736 150.495 86.1652 150.584 86.0112 150.743C85.8572 150.901 85.77 151.116 85.7686 151.34V152.427C85.7686 154.171 87.1697 156.431 88.6542 156.431C88.7356 156.436 88.8174 156.436 88.8988 156.431C87.8035 154.64 88.593 151.631 91.2618 151.631Z" fill="black"/>
<path opacity="0.2" d="M101.365 151.632H101.415V151.351C101.413 151.127 101.326 150.913 101.172 150.754C101.018 150.596 100.81 150.506 100.592 150.505H96.4719C96.3626 150.503 96.2542 150.524 96.1527 150.566C96.0513 150.608 95.9589 150.67 95.8809 150.748C95.8028 150.827 95.7407 150.921 95.698 151.024C95.6554 151.128 95.633 151.239 95.6323 151.351V152.438C95.6323 154.183 97.0334 156.442 98.518 156.442C98.6672 156.44 98.8153 156.415 98.9572 156.368C97.9175 154.589 98.7126 151.632 101.365 151.632Z" fill="black"/>
<path opacity="0.2" d="M111.033 151.58H111.289V151.363C111.289 151.138 111.202 150.923 111.048 150.764C110.894 150.605 110.685 150.516 110.466 150.516H106.346C106.128 150.516 105.919 150.605 105.764 150.764C105.61 150.923 105.523 151.138 105.523 151.363V152.449C105.523 154.194 106.919 156.453 108.404 156.453C108.504 156.451 108.605 156.44 108.704 156.419C107.553 154.64 108.331 151.58 111.033 151.58Z" fill="black"/>
<path opacity="0.2" d="M120.652 151.631C120.829 151.632 121.006 151.647 121.18 151.677V151.351C121.18 151.127 121.094 150.911 120.939 150.753C120.785 150.594 120.576 150.505 120.358 150.505H116.204C115.986 150.505 115.777 150.594 115.622 150.753C115.468 150.911 115.381 151.127 115.381 151.351V152.438C115.381 154.183 116.777 156.442 118.267 156.442C117.166 154.663 117.95 151.631 120.652 151.631Z" fill="black"/>
<path opacity="0.2" d="M130.593 151.265C130.742 151.266 130.891 151.276 131.038 151.294C131.023 151.08 130.93 150.88 130.777 150.734C130.624 150.587 130.424 150.505 130.215 150.505H126.095C125.878 150.506 125.669 150.596 125.515 150.754C125.361 150.913 125.274 151.127 125.272 151.351V152.438C125.272 154.183 126.674 156.442 128.158 156.442C128.265 156.44 128.371 156.427 128.475 156.402C127.029 154.703 127.736 151.265 130.593 151.265Z" fill="black"/>
<path opacity="0.2" d="M140.546 151.7C140.674 151.7 140.801 151.7 140.918 151.7V151.328C140.917 151.104 140.83 150.89 140.676 150.731C140.522 150.573 140.313 150.483 140.095 150.482H135.975C135.757 150.482 135.547 150.571 135.392 150.729C135.236 150.888 135.148 151.103 135.147 151.328V152.415C135.147 154.16 136.548 156.419 138.033 156.419H138.144C137.104 154.646 137.888 151.7 140.546 151.7Z" fill="black"/>
<path opacity="0.2" d="M150.793 151.351C150.793 151.127 150.706 150.911 150.552 150.753C150.398 150.594 150.188 150.505 149.97 150.505H145.85C145.742 150.505 145.635 150.527 145.535 150.569C145.435 150.612 145.345 150.674 145.268 150.753C145.192 150.831 145.131 150.925 145.09 151.027C145.049 151.13 145.027 151.24 145.027 151.351V152.438C145.027 154.183 146.423 156.442 147.907 156.442C148.204 156.435 148.494 156.352 148.753 156.202C147.629 154.497 148.308 151.58 150.793 151.351Z" fill="black"/>
<path opacity="0.2" d="M160.684 151.58V151.363C160.684 151.138 160.597 150.923 160.443 150.764C160.289 150.605 160.08 150.516 159.861 150.516H155.741C155.523 150.516 155.314 150.605 155.159 150.764C155.005 150.923 154.918 151.138 154.918 151.363V152.449C154.918 154.194 156.314 156.453 157.804 156.453C158.043 156.45 158.278 156.393 158.494 156.288C157.476 154.543 158.204 151.723 160.684 151.58Z" fill="black"/>
<path opacity="0.2" d="M170.203 151.408C170.32 151.408 170.436 151.408 170.548 151.408V151.334C170.546 151.109 170.458 150.894 170.303 150.735C170.148 150.576 169.938 150.487 169.719 150.487H165.599C165.381 150.489 165.173 150.579 165.019 150.737C164.865 150.895 164.778 151.11 164.776 151.334V152.421C164.776 154.165 166.177 156.425 167.662 156.425C167.767 156.423 167.871 156.41 167.973 156.385C166.683 154.663 167.423 151.408 170.203 151.408Z" fill="black"/>
<path opacity="0.2" d="M180.422 151.78V151.351C180.421 151.127 180.334 150.913 180.18 150.754C180.026 150.596 179.817 150.506 179.599 150.505H175.479C175.261 150.505 175.051 150.594 174.895 150.752C174.74 150.911 174.652 151.126 174.651 151.351V152.438C174.651 154.183 176.052 156.442 177.537 156.442C177.705 156.439 177.872 156.41 178.031 156.356C177.125 154.583 177.92 151.849 180.422 151.78Z" fill="black"/>
<path opacity="0.2" d="M189.83 151.483C189.986 151.485 190.142 151.496 190.297 151.517V151.351C190.297 151.127 190.21 150.911 190.056 150.753C189.902 150.594 189.692 150.505 189.474 150.505H185.354C185.246 150.505 185.139 150.527 185.039 150.569C184.939 150.612 184.849 150.674 184.772 150.753C184.696 150.831 184.635 150.925 184.594 151.027C184.553 151.13 184.531 151.24 184.531 151.351V152.438C184.531 154.183 185.927 156.442 187.411 156.442C187.463 156.445 187.515 156.445 187.567 156.442C186.322 154.674 187.078 151.483 189.83 151.483Z" fill="black"/>
<path opacity="0.2" d="M199.788 151.923C199.916 151.914 200.044 151.914 200.171 151.923V151.351C200.171 151.127 200.085 150.911 199.93 150.753C199.776 150.594 199.567 150.505 199.349 150.505H195.229C195.01 150.505 194.801 150.594 194.647 150.753C194.492 150.911 194.406 151.127 194.406 151.351V152.438C194.406 154.154 195.79 156.442 197.275 156.442C196.407 154.64 197.247 151.923 199.788 151.923Z" fill="black"/>
<path opacity="0.2" d="M176.458 178.098V172.458C176.458 172.076 176.157 171.766 175.785 171.766H100.28C99.9089 171.766 99.6077 172.076 99.6077 172.458V178.098C99.6077 178.48 99.9089 178.79 100.28 178.79H175.785C176.157 178.79 176.458 178.48 176.458 178.098Z" fill="black"/>
<path opacity="0.2" d="M186.677 173.722V173.15C186.677 173.039 186.656 172.929 186.615 172.826C186.573 172.723 186.513 172.63 186.436 172.552C186.36 172.473 186.269 172.411 186.169 172.368C186.07 172.325 185.963 172.304 185.854 172.304H181.734C181.626 172.304 181.519 172.325 181.42 172.368C181.32 172.411 181.229 172.473 181.153 172.552C181.076 172.63 181.016 172.723 180.974 172.826C180.933 172.929 180.912 173.039 180.912 173.15V174.237C180.912 175.982 182.307 178.241 183.797 178.241C183.921 178.238 184.044 178.221 184.164 178.189C183.341 176.405 184.181 173.739 186.677 173.722Z" fill="black"/>
<path opacity="0.2" d="M94.6757 173.356C94.8377 173.357 94.9994 173.371 95.1595 173.396V173.156C95.158 172.931 95.0701 172.716 94.9149 172.557C94.7597 172.398 94.5498 172.309 94.331 172.309H90.2111C89.9933 172.311 89.7848 172.401 89.6308 172.559C89.4768 172.717 89.3896 172.932 89.3882 173.156V174.243C89.3882 175.987 90.7893 178.247 92.2738 178.247H92.3683C91.1841 176.473 91.9625 173.356 94.6757 173.356Z" fill="black"/>
<path opacity="0.2" d="M69.8895 54.054H206.176C207.113 54.054 208.011 54.4366 208.673 55.1178C209.335 55.799 209.707 56.7228 209.707 57.6862V89.7182H66.3589V57.6862C66.3589 56.7228 66.7309 55.799 67.393 55.1178C68.0551 54.4366 68.9531 54.054 69.8895 54.054V54.054Z" fill="black"/>
<path d="M195.034 60.0943H81.0538C80.1033 51.9739 78.4283 43.9607 76.0498 36.1561H200.06C197.644 43.9517 195.961 51.9679 195.034 60.0943V60.0943Z" fill="white"/>
<path opacity="0.2" d="M196.157 52.3781C195.329 57.0341 195.045 60.0943 195.045 60.0943H81.0651C81.0651 60.0943 80.776 57.0913 79.9253 52.3781H196.157Z" fill="black"/>
<path d="M195.034 60.0943H81.0538C80.1033 51.9739 78.4283 43.9607 76.0498 36.1561H200.06C197.644 43.9517 195.961 51.9679 195.034 60.0943V60.0943Z" stroke="#263238" stroke-linecap="round" stroke-linejoin="round"/>
<path d="M193.483 80.2516H81.6655V127.579H193.483V80.2516Z" fill="#263238"/>
<g opacity="0.4">
<path opacity="0.4" d="M134.786 123.392L135.375 123.42C136.116 111.618 136.858 99.7968 137.599 87.9564C136.654 99.8006 135.716 111.612 134.786 123.392Z" fill="white"/>
<path opacity="0.4" d="M132.884 123.243L133.474 123.295C134.76 111.569 136.044 99.7911 137.327 87.9622C135.848 99.7987 134.367 111.559 132.884 123.243Z" fill="white"/>
<path opacity="0.4" d="M131.033 123.026C131.227 123.026 131.427 123.071 131.622 123.094C133.446 111.494 135.281 99.7816 137.126 87.9564C135.088 99.793 133.057 111.483 131.033 123.026Z" fill="white"/>
<path opacity="0.4" d="M129.159 122.734L129.754 122.831C132.119 111.391 134.502 99.7607 136.904 87.9393C134.31 99.7721 131.728 111.37 129.159 122.734Z" fill="white"/>
<path opacity="0.4" d="M127.291 122.374L127.891 122.499C130.783 111.277 133.713 99.7606 136.682 87.9507C133.524 99.7644 130.393 111.239 127.291 122.374Z" fill="white"/>
<path opacity="0.4" d="M125.434 121.939L126.034 122.093C129.442 111.123 132.945 99.7454 136.459 87.9451C132.739 99.7454 129.031 111.071 125.434 121.939Z" fill="white"/>
<path opacity="0.4" d="M123.583 121.424L124.189 121.607C128.081 110.945 132.156 99.7225 136.237 87.9336C131.95 99.7225 127.68 110.882 123.583 121.424Z" fill="white"/>
<path opacity="0.4" d="M121.764 120.841L122.37 121.041C126.768 110.745 131.383 99.6996 136.031 87.9279C131.155 99.6996 126.329 110.665 121.764 120.841Z" fill="white"/>
<path opacity="0.4" d="M119.918 120.171L120.53 120.4C125.401 110.493 130.577 99.671 135.792 87.9164C130.36 99.671 124.967 110.396 119.918 120.171Z" fill="white"/>
<path opacity="0.4" d="M118.117 119.417L118.728 119.68C124.044 110.219 129.782 99.6596 135.57 87.905C129.548 99.6367 123.604 110.139 118.117 119.417Z" fill="white"/>
<path opacity="0.4" d="M116.332 118.57L116.944 118.873C122.682 109.921 128.981 99.5967 135.347 87.8936C128.753 99.5967 122.237 109.824 116.332 118.57Z" fill="white"/>
<path opacity="0.4" d="M114.575 117.632L115.187 117.975C121.303 109.584 128.181 99.5509 135.125 87.8763C128.791 98.1617 121.932 108.094 114.575 117.632V117.632Z" fill="white"/>
<path opacity="0.4" d="M112.868 116.602C113.068 116.734 113.28 116.854 113.485 116.98C121.202 107.733 128.362 98.0103 134.925 87.865C128.208 97.9428 120.839 107.544 112.868 116.602Z" fill="white"/>
<path opacity="0.4" d="M111.161 115.464L111.767 115.893C120.094 107.17 127.754 97.7997 134.68 87.865C127.61 97.7299 119.743 106.962 111.161 115.464V115.464Z" fill="white"/>
<path opacity="0.4" d="M134.458 87.8306C125.512 99.3564 116.76 108.148 109.532 114.223L110.127 114.697C119.051 106.56 127.198 97.563 134.458 87.8306V87.8306Z" fill="white"/>
<path opacity="0.4" d="M134.235 87.8135C124.706 99.2535 115.393 107.616 107.948 112.879L108.537 113.399C115.882 107.805 124.956 99.2821 134.235 87.8135Z" fill="white"/>
<path opacity="0.4" d="M133.996 87.7963C123.894 99.1505 114.053 107.021 106.441 111.414C106.624 111.609 106.808 111.803 106.997 111.986C114.536 107.239 124.161 99.1791 133.996 87.7963Z" fill="white"/>
<path opacity="0.4" d="M133.79 87.7734C123.137 99.0132 112.785 106.363 105.051 109.853L105.607 110.476C113.263 106.604 123.382 99.0476 133.79 87.7734Z" fill="white"/>
<path opacity="0.4" d="M103.772 108.182C103.933 108.411 104.1 108.64 104.267 108.863C112.023 105.917 122.615 98.8873 133.574 87.7562C122.392 98.8359 111.573 105.637 103.772 108.182Z" fill="white"/>
<path opacity="0.4" d="M102.638 106.443C102.782 106.684 102.932 106.924 103.082 107.164C110.866 105.151 121.92 98.6814 133.351 87.7162C121.697 98.6185 110.449 104.848 102.638 106.443Z" fill="white"/>
<path opacity="0.4" d="M101.67 104.676C101.793 104.928 101.921 105.174 102.048 105.425C109.832 104.339 121.264 98.4412 133.129 87.7219C121.069 98.3382 109.454 103.99 101.67 104.676Z" fill="white"/>
<path opacity="0.4" d="M100.881 102.868C100.981 103.12 101.087 103.378 101.192 103.629C108.932 103.435 120.652 98.1209 132.884 87.6819C120.513 98.0122 108.609 103.069 100.881 102.868Z" fill="white"/>
<path opacity="0.4" d="M136.67 123.472H137.254C137.432 111.651 137.617 99.814 137.81 87.9622C137.421 99.8064 137.041 111.643 136.67 123.472Z" fill="white"/>
<path opacity="0.4" d="M138.55 123.483H139.139C138.769 111.662 138.398 99.8255 138.027 87.9736L138.55 123.483Z" fill="white"/>
<path opacity="0.4" d="M140.429 123.432H141.018C140.092 111.649 139.165 99.8274 138.238 87.9679C138.968 99.8121 139.699 111.633 140.429 123.432Z" fill="white"/>
<path opacity="0.4" d="M142.336 123.312L142.926 123.266C141.443 111.571 139.96 99.8026 138.478 87.9622C139.753 99.8026 141.039 111.586 142.336 123.312Z" fill="white"/>
<path opacity="0.4" d="M144.188 123.129L144.777 123.054C142.761 111.496 140.722 99.7968 138.661 87.9564C140.518 99.7968 142.36 111.521 144.188 123.129Z" fill="white"/>
<path opacity="0.4" d="M146.062 122.871L146.657 122.78C144.099 111.397 141.514 99.7892 138.9 87.9564C141.302 99.793 143.689 111.431 146.062 122.871Z" fill="white"/>
<path opacity="0.4" d="M147.93 122.545L148.525 122.431C145.437 111.273 142.303 99.7796 139.123 87.9507C142.08 99.7796 145.016 111.311 147.93 122.545Z" fill="white"/>
<path opacity="0.4" d="M149.786 122.145L150.392 122.002C146.79 111.134 143.075 99.7683 139.345 87.9451C142.87 99.7702 146.35 111.17 149.786 122.145Z" fill="white"/>
<path opacity="0.4" d="M151.644 121.676L152.244 121.499C148.141 110.934 143.865 99.7626 139.567 87.9336C143.654 99.7511 147.724 110.968 151.644 121.676Z" fill="white"/>
<path opacity="0.4" d="M153.484 121.121L154.095 120.915C149.497 110.722 144.643 99.7511 139.79 87.9279C144.449 99.7282 149.075 110.785 153.484 121.121Z" fill="white"/>
<path opacity="0.4" d="M155.313 120.486L155.925 120.252C150.865 110.476 145.461 99.7053 140.012 87.9164C145.244 99.7053 150.432 110.55 155.313 120.486Z" fill="white"/>
<path opacity="0.4" d="M157.126 119.771C157.331 119.68 157.543 119.6 157.743 119.508C152.238 110.207 146.267 99.6768 140.234 87.905C146.045 99.6768 151.788 110.287 157.126 119.771Z" fill="white"/>
<path opacity="0.4" d="M158.922 118.976L159.539 118.673C153.618 109.904 147.073 99.6482 140.457 87.8993C146.845 99.6367 153.162 109.996 158.922 118.976Z" fill="white"/>
<path opacity="0.4" d="M160.684 118.078C160.89 117.969 161.096 117.849 161.296 117.735C153.912 108.164 147.027 98.197 140.668 87.8763C147.652 99.6023 154.568 109.664 160.684 118.078Z" fill="white"/>
<path opacity="0.4" d="M162.43 117.088L163.053 116.711C155.047 107.619 147.647 97.9819 140.902 87.865C147.49 98.0503 154.679 107.81 162.43 117.088V117.088Z" fill="white"/>
<path opacity="0.4" d="M141.124 87.8478C148.078 97.8289 155.772 107.242 164.137 116.002L164.754 115.573C156.13 107.035 148.225 97.76 141.124 87.8478V87.8478Z" fill="white"/>
<path opacity="0.4" d="M141.347 87.8306C148.64 97.6098 156.833 106.643 165.811 114.806C166.016 114.652 166.211 114.491 166.411 114.331C159.161 108.257 150.343 99.425 141.347 87.8306Z" fill="white"/>
<path opacity="0.4" d="M141.569 87.8135C150.91 99.3507 160.039 107.908 167.406 113.502C167.606 113.33 167.812 113.159 168.007 112.981C160.534 107.731 151.16 99.345 141.569 87.8135Z" fill="white"/>
<path opacity="0.4" d="M141.78 87.7963C151.705 99.2363 161.379 107.353 168.941 112.095C169.135 111.906 169.319 111.706 169.497 111.523C161.88 107.136 151.966 99.2363 141.78 87.7963Z" fill="white"/>
<path opacity="0.4" d="M142.014 87.7734C152.505 99.1334 162.702 106.724 170.37 110.568L170.926 109.938C163.192 106.489 152.756 99.1105 142.014 87.7734Z" fill="white"/>
<path opacity="0.4" d="M171.743 108.943C171.915 108.714 172.076 108.486 172.243 108.251C164.431 105.763 153.512 98.9388 142.219 87.7562C153.273 98.9846 163.97 106.037 171.743 108.943Z" fill="white"/>
<path opacity="0.4" d="M172.95 107.221L173.406 106.489C165.583 104.973 154.229 98.7272 142.453 87.7334C154.012 98.7902 165.132 105.277 172.95 107.221Z" fill="white"/>
<path opacity="0.4" d="M174.028 105.442C174.162 105.191 174.29 104.939 174.418 104.682C166.634 104.11 154.896 98.4526 142.726 87.7104C154.668 98.5441 166.244 104.453 174.028 105.442Z" fill="white"/>
<path opacity="0.4" d="M142.892 87.6819C155.258 98.241 167.134 103.555 174.862 103.635C174.973 103.378 175.079 103.12 175.185 102.863C167.467 103.189 155.435 98.1266 142.892 87.6819Z" fill="white"/>
</g>
<path opacity="0.2" d="M121.764 88.8144C119.657 94.3742 121.936 110.55 137.143 110.55C152.35 110.55 157.871 99.1848 157.253 92.1606L177.553 88.7972C177.553 88.7972 183.775 106.483 170.564 118.856C157.354 131.228 111.561 130.427 101.881 121.024C92.2015 111.62 97.5724 93.0415 97.5724 93.0415L121.764 88.8144Z" fill="black"/>
<path d="M210.857 64.8248V60.9238C210.857 60.7794 210.902 60.6388 210.985 60.5224C211.068 60.4061 211.185 60.3202 211.319 60.2774L214.099 59.3851V55.484C214.099 55.0168 214.279 54.5687 214.6 54.2383C214.922 53.9079 215.357 53.7223 215.811 53.7223H219.147C219.312 53.7191 219.471 53.7817 219.591 53.897C219.712 54.0123 219.784 54.1711 219.792 54.34V55.5984C219.792 55.7704 219.726 55.9354 219.609 56.0575C219.491 56.1797 219.331 56.249 219.164 56.2505H214.922V60.0658C214.92 60.1808 214.89 60.2935 214.834 60.3934C214.779 60.4934 214.7 60.5774 214.605 60.6378L212.236 62.1135V64.8305L210.857 64.8248Z" fill="#999999" stroke="#263238" stroke-linecap="round" stroke-linejoin="round"/>
<path d="M214.516 64.8247H210.857V76.0817H214.516V64.8247Z" fill="#263238"/>
<path d="M219.092 63.8695H214.516V77.0369H219.092V63.8695Z" fill="#757575"/>
<path opacity="0.2" d="M219.081 71.8889H214.516V77.0369H219.081V71.8889Z" fill="black"/>
<path d="M219.092 63.8695H214.516V77.0369H219.092V63.8695Z" stroke="#263238" stroke-linecap="round" stroke-linejoin="round"/>
<path d="M61.5495 76.076H65.208V64.8191H61.5495V76.076Z" fill="#263238"/>
<path d="M56.9734 77.0312H61.5493V63.8638H56.9734V77.0312Z" fill="#757575"/>
<path opacity="0.2" d="M61.5549 71.8889H56.979V76.9111H61.5549V71.8889Z" fill="black"/>
<path d="M56.9734 77.0312H61.5493V63.8638H56.9734V77.0312Z" stroke="#263238" stroke-linecap="round" stroke-linejoin="round"/>
<path d="M64.6574 71.1224C64.9878 70.2307 65.0389 69.2551 64.8036 68.332C64.5684 67.4089 64.0585 66.5846 63.3453 65.9744L60.6542 63.6864C60.483 63.538 60.2839 63.4274 60.0693 63.3617C59.8547 63.296 59.6292 63.2764 59.407 63.3043C59.1847 63.3323 58.9704 63.407 58.7775 63.5239C58.5846 63.6408 58.4172 63.7974 58.2857 63.9839L47.6161 79.1247C47.413 79.408 47.3039 79.7509 47.3047 80.1028V96.3648C47.3047 96.5831 47.3468 96.7992 47.4287 97.0006C47.5105 97.2019 47.6305 97.3846 47.7815 97.5378C47.9326 97.6911 48.1117 97.812 48.3086 97.8934C48.5054 97.9748 48.7161 98.0152 48.9282 98.0122V98.0122C49.3529 98.0122 49.7602 97.8386 50.0605 97.5297C50.3608 97.2207 50.5295 96.8017 50.5295 96.3648V83.1573C50.5305 82.8313 50.6295 82.5136 50.813 82.2478L58.7916 70.8078C58.8615 70.7074 58.9509 70.623 59.0541 70.5599C59.1573 70.4968 59.2721 70.4565 59.3913 70.4414C59.5105 70.4264 59.6314 70.4369 59.7464 70.4724C59.8613 70.5079 59.9679 70.5676 60.0593 70.6477L61.5272 71.929C61.8906 72.2462 62.3516 72.4206 62.8282 72.4209V72.4209C63.2246 72.4185 63.6111 72.2933 63.9373 72.0617C64.2636 71.8301 64.5145 71.5028 64.6574 71.1224V71.1224Z" fill="white" stroke="#263238" stroke-linecap="round" stroke-linejoin="round"/>
<path d="M62.4556 69.641C62.8763 69.641 63.2173 69.2902 63.2173 68.8574C63.2173 68.4246 62.8763 68.0737 62.4556 68.0737C62.0349 68.0737 61.6938 68.4246 61.6938 68.8574C61.6938 69.2902 62.0349 69.641 62.4556 69.641Z" fill="#999999" stroke="#263238" stroke-linecap="round" stroke-linejoin="round"/>
<path d="M207.466 59.385H68.605V81.51H207.466V59.385Z" fill="#263238"/>
<path opacity="0.2" d="M205.459 61.0496H70.5568C70.1331 61.0496 69.7896 61.403 69.7896 61.8389V65.4196C69.7896 65.8556 70.1331 66.209 70.5568 66.209H205.459C205.883 66.209 206.226 65.8556 206.226 65.4196V61.8389C206.226 61.403 205.883 61.0496 205.459 61.0496Z" fill="white"/>
<path d="M195.034 85.9602H81.0538C77.8418 78.4069 76.14 70.2659 76.0498 62.022H200.06C200.06 73.1073 195.034 85.9602 195.034 85.9602Z" fill="white"/>
<g opacity="0.7">
<path opacity="0.7" d="M90.2725 84.1641C90.2725 84.1641 92.7689 84.0268 94.1645 83.1631C95.56 82.2994 95.4599 83.941 96.2606 84.0497C97.0612 84.1584 98.9516 83.4777 99.9524 83.4777C100.953 83.4777 100.191 84.1069 101.32 84.0497C102.449 83.9925 101.843 84.1069 102.432 83.9925L107.264 83.1631C107.264 83.1631 109.716 82.6769 110.211 82.9229C110.705 83.1688 111.356 84.3815 112.079 84.0669C112.802 83.7523 112.418 83.4949 113.508 83.4949C114.181 83.4981 114.851 83.5982 115.498 83.7923C115.498 83.7923 115.598 83.5006 116.099 83.4949H116.994C116.994 83.4949 118.89 84.0097 119.19 84.0097C119.49 84.0097 121.731 83.5006 121.809 83.4949C121.887 83.4891 124.033 82.9229 124.033 82.9229C124.488 83.4125 125.065 83.7646 125.701 83.941C126.513 84.0497 127.369 83.8266 127.98 84.1069C128.592 84.3872 130.605 83.9925 130.605 83.9925C131.085 83.9957 131.564 84.034 132.039 84.1069C132.662 84.2532 133.311 84.2335 133.924 84.0497C135.052 83.743 136.235 83.7234 137.371 83.9925C139.178 84.33 140.841 83.4834 141.608 83.4777C142.375 83.472 145.444 83.8266 146.501 83.8266C147.557 83.8266 150.354 84.2156 152.3 83.9925C154.246 83.7694 155.519 84.2728 156.826 84.2728C158.132 84.2728 159.528 84.2156 159.828 84.2156C160.128 84.2156 161.574 83.2432 163.642 83.4777C165.711 83.7122 163.87 83.186 165.143 83.4777C166.417 83.7694 167.423 84.0497 167.962 84.1069C168.395 84.1328 168.829 84.1137 169.258 84.0497L171.482 83.8838H182.568" stroke="#263238" stroke-linecap="round" stroke-linejoin="round"/>
<path opacity="0.7" d="M87.9648 79.7482C87.9648 79.7482 94.8314 79.7482 96.0713 79.6338C97.3112 79.5194 97.9728 78.8674 98.6345 78.8674C99.2961 78.8674 102.638 79.5194 102.638 79.5194C102.735 79.3061 102.894 79.129 103.093 79.0123C103.292 78.8956 103.522 78.845 103.75 78.8674C104.656 78.8674 104.194 78.9532 105.028 79.2964C105.862 79.6396 105.429 79.2964 105.868 79.6338C106.523 79.9363 107.215 80.1442 107.925 80.2516C107.925 80.2516 111.022 80.4003 111.139 79.6338C111.256 78.8674 112.807 80.2516 112.807 80.2516C112.807 80.2516 117.01 79.6338 118.634 79.6338C120.257 79.6338 124.327 79.2964 124.327 79.2964C124.327 79.2964 127.663 79.7482 127.819 79.7482C127.975 79.7482 128.525 80.6463 129.12 80.2516C129.715 79.8569 130.288 79.405 130.994 79.5194C131.649 79.6868 132.284 79.9325 132.884 80.2516L134.435 79.405L136.215 79.5194C136.215 79.5194 138.027 80.7607 139.323 80.2516C140.309 79.846 141.272 79.3839 142.208 78.8674L143.804 80.2516H144.849L147.946 79.6338C148.184 79.9352 148.506 80.1555 148.868 80.2657C149.23 80.3759 149.616 80.371 149.976 80.2516C151.288 79.8626 163.825 80.2516 167.017 80.2516C170.208 80.2516 170.909 79.405 170.909 79.405L173.366 80.2516H185.598" stroke="#263238" stroke-linecap="round" stroke-linejoin="round"/>
</g>
<path opacity="0.2" d="M196.196 82.6539C195.523 84.7131 195.034 85.9601 195.034 85.9601H81.054C81.054 85.9601 80.498 84.7589 79.7363 82.6539H196.196Z" fill="black"/>
<path opacity="0.2" d="M198.57 73.9939C198.186 75.7099 197.764 77.3859 197.347 78.8673H78.4964C78.0849 77.4145 77.6624 75.7728 77.2954 73.9939H198.57Z" fill="black"/>
<path d="M195.034 85.9602H81.0538C77.8418 78.4069 76.14 70.2659 76.0498 62.022H200.06C200.06 73.1073 195.034 85.9602 195.034 85.9602Z" stroke="#263238" stroke-linecap="round" stroke-linejoin="round"/>
<path d="M68.5773 58.2468H65.1802V82.6598H68.5773V58.2468Z" fill="#757575"/>
<path opacity="0.2" d="M68.5104 75.4182H65.2021V82.6597H68.5104V75.4182Z" fill="black"/>
<path d="M68.5773 58.2468H65.1802V82.6598H68.5773V58.2468Z" stroke="#263238" stroke-linecap="round" stroke-linejoin="round"/>
<path d="M210.885 58.2468H207.488V82.6598H210.885V58.2468Z" fill="#757575"/>
<path opacity="0.2" d="M210.885 75.4182H207.46V82.6597H210.885V75.4182Z" fill="black"/>
<path d="M210.885 58.2468H207.488V82.6598H210.885V58.2468Z" stroke="#263238" stroke-linecap="round" stroke-linejoin="round"/>
<path d="M207.516 57.2229V75.0293H68.5492V57.2229H67.2148V76.2247H208.85V57.2229H207.516Z" fill="#999999" stroke="#263238" stroke-linecap="round" stroke-linejoin="round"/>
<path d="M215.728 87.2186V127.15C215.728 127.823 215.468 128.469 215.005 128.946C214.542 129.422 213.914 129.69 213.26 129.69H62.7894C62.1347 129.69 61.5068 129.422 61.0438 128.946C60.5809 128.469 60.3208 127.823 60.3208 127.15V87.2186C60.3208 86.545 60.5809 85.899 61.0438 85.4227C61.5068 84.9465 62.1347 84.6789 62.7894 84.6789H132.123V87.2186C132.123 87.2186 120.285 97.7834 99.8747 101.679C102.799 115.298 118.779 125.703 138.061 125.703C157.343 125.703 173.322 115.287 176.252 101.679C155.814 97.7834 143.977 87.2186 143.977 87.2186V84.656H213.276C213.601 84.6582 213.922 84.7264 214.221 84.8564C214.52 84.9865 214.791 85.176 215.019 85.414C215.247 85.652 215.427 85.9339 215.548 86.2436C215.67 86.5533 215.731 86.8846 215.728 87.2186Z" fill="white" stroke="#263238" stroke-linecap="round" stroke-linejoin="round"/>
<path d="M215.728 87.2186V127.15C215.728 127.484 215.664 127.815 215.54 128.123C215.415 128.432 215.233 128.712 215.003 128.948C214.773 129.184 214.5 129.371 214.2 129.498C213.9 129.625 213.579 129.69 213.254 129.69H62.7891C62.4645 129.69 62.1429 129.625 61.8427 129.498C61.5426 129.371 61.2698 129.184 61.04 128.948C60.8101 128.712 60.6278 128.432 60.5034 128.123C60.379 127.815 60.3149 127.484 60.3149 127.15V87.2186C60.3164 86.5439 60.5776 85.8974 61.0412 85.4204C61.5049 84.9433 62.1334 84.6747 62.7891 84.6732H132.122V87.2186C132.122 87.2186 120.28 97.7777 99.8743 101.679C102.799 115.298 118.778 125.703 138.066 125.703C157.354 125.703 173.322 115.287 176.252 101.679C155.814 97.7777 143.976 87.2186 143.976 87.2186V84.656H213.276C213.931 84.662 214.557 84.9352 215.017 85.4157C215.477 85.8961 215.733 86.5445 215.728 87.2186V87.2186Z" fill="white"/>
<path opacity="0.2" d="M212.392 87.8306V124.696C212.392 124.941 212.345 125.184 212.254 125.41C212.162 125.636 212.028 125.842 211.859 126.015C211.69 126.187 211.49 126.324 211.269 126.417C211.049 126.51 210.813 126.557 210.574 126.555H64.2684C64.0309 126.556 63.7956 126.508 63.5761 126.415C63.3565 126.322 63.157 126.185 62.9891 126.012C62.8211 125.839 62.688 125.634 62.5975 125.408C62.5069 125.182 62.4607 124.94 62.4614 124.696V87.8306C62.4607 87.5858 62.5069 87.3431 62.5973 87.1166C62.6877 86.8901 62.8206 86.6841 62.9884 86.5104C63.1562 86.3367 63.3556 86.1987 63.5752 86.1043C63.7949 86.0099 64.0304 85.961 64.2684 85.9602H132.1V87.2186C132.1 87.2186 120.258 97.7777 99.8524 101.679C102.777 115.298 118.756 125.703 138.044 125.703C157.332 125.703 173.3 115.287 176.23 101.679C155.792 97.7777 143.954 87.2186 143.954 87.2186V85.9602H210.591C211.07 85.9647 211.528 86.1638 211.866 86.5141C212.203 86.8644 212.392 87.3375 212.392 87.8306V87.8306Z" fill="white"/>
<path d="M215.728 87.2186V127.15C215.728 127.484 215.664 127.815 215.54 128.123C215.415 128.432 215.233 128.712 215.003 128.948C214.773 129.184 214.5 129.371 214.2 129.498C213.9 129.625 213.579 129.69 213.254 129.69H62.7891C62.4645 129.69 62.1429 129.625 61.8427 129.498C61.5426 129.371 61.2698 129.184 61.04 128.948C60.8101 128.712 60.6278 128.432 60.5034 128.123C60.379 127.815 60.3149 127.484 60.3149 127.15V87.2186C60.3164 86.5439 60.5776 85.8974 61.0412 85.4204C61.5049 84.9433 62.1334 84.6747 62.7891 84.6732H132.122V87.2186C132.122 87.2186 120.28 97.7777 99.8743 101.679C102.799 115.298 118.778 125.703 138.066 125.703C157.354 125.703 173.322 115.287 176.252 101.679C155.814 97.7777 143.976 87.2186 143.976 87.2186V84.656H213.276C213.931 84.662 214.557 84.9352 215.017 85.4157C215.477 85.8961 215.733 86.5445 215.728 87.2186V87.2186Z" stroke="#263238" stroke-linecap="round" stroke-linejoin="round"/>
<path opacity="0.2" d="M166.021 141.524L173.411 162.728C173.411 162.728 176.608 139.391 178.515 139.391C180.422 139.391 184.531 152.152 184.531 152.152C184.531 152.152 187.066 145.494 189.468 145.254C191.87 145.014 194.044 161.602 194.044 161.602L194.416 198.421L191.386 254.105C191.386 254.105 172.054 232.198 166.416 226.552C160.778 220.906 155.391 208.483 153.834 205.96C152.277 203.438 151.882 190.23 151.882 190.23C153.853 187.636 154.884 184.415 154.796 181.124C154.796 181.124 159.333 173.31 159.055 167.545C158.777 161.779 158.076 139.374 166.021 141.524Z" fill="black" fill-opacity="0.7"/>
<path d="M224.185 244.244L194.917 260.083C194.917 259.922 191.069 253.51 186.421 246.257C184.319 242.974 182.051 239.525 179.899 236.402C176.374 231.294 171.893 226.884 171.509 225.923C170.397 223.063 161.824 212.355 159.905 208.191C157.987 204.027 157.548 191.071 156.703 188.022C155.858 184.973 158.282 182.062 160.228 180.643C162.174 179.225 164.214 175.495 164.214 175.495C164.214 175.495 162.063 166.869 162.04 162.482C162.018 158.095 160.567 142.783 162.302 141.353C164.036 139.923 165.588 140.523 166.021 141.507C167.445 144.75 168.724 152.907 169.819 156.665C170.914 160.423 172.971 171.325 173.983 172.109C174.995 172.893 176.797 169.953 176.797 169.953C176.797 169.953 176.969 160.801 177.353 157.008L176.797 144.996C176.797 144.996 175.757 137.778 178.176 137.091C181.512 136.147 182.729 138.304 183.107 139.213C183.485 140.123 185.042 145.362 185.042 145.362L185.131 145.723C185.131 145.757 185.131 145.791 185.131 145.831V145.894C185.157 145.993 185.185 146.102 185.214 146.22C185.276 146.461 185.348 146.747 185.426 147.073C186.165 150.053 187.589 156.019 187.527 157.489C187.444 159.474 186.771 170.467 187.722 172.75L189.201 157.563C189.201 157.563 186.816 145.86 187.511 144.173C188.206 142.485 191.481 144.35 191.87 145.013C192.259 145.677 195.439 149.692 196.006 151.225L196.562 152.758C196.562 152.758 197.346 149.132 199.187 150.076C201.027 151.019 201.255 155.63 201.383 157.643C201.511 159.657 202.845 172.607 203.051 172.63C203.257 172.652 205.381 179.379 205.091 183.824C204.485 193.336 206.087 200.412 206.142 204.061C206.198 207.71 203.524 216.164 203.524 216.164C203.618 216.33 205.364 219.385 205.842 222.068C206.192 224.035 212.425 231.145 217.518 236.802C221.06 240.703 224.029 243.895 224.185 244.244Z" fill="white"/>
<path opacity="0.4" d="M186.426 246.269C184.325 242.986 182.056 239.537 179.904 236.413C176.379 231.305 171.898 226.895 171.514 225.934C170.402 223.074 161.829 212.367 159.911 208.202C157.993 204.038 157.553 191.082 156.708 188.034C155.863 184.985 158.287 182.073 160.233 180.655C162.179 179.236 164.22 175.507 164.22 175.507C164.22 175.507 162.068 166.881 162.046 162.494C162.024 158.107 160.572 142.794 162.307 141.364C164.042 139.934 165.593 140.535 166.027 141.519C167.45 144.762 168.729 152.919 169.824 156.677C170.92 160.435 172.977 171.337 173.989 172.121C175.001 172.904 176.802 169.964 176.802 169.964C176.802 169.964 176.974 160.812 177.358 157.02L176.802 145.008C176.802 145.008 175.762 137.789 178.181 137.103C181.517 136.159 182.735 138.315 183.113 139.225C183.491 140.134 185.047 145.374 185.047 145.374L185.136 145.734C185.136 145.769 185.136 145.803 185.136 145.843V145.906C185.159 146.005 185.186 146.114 185.22 146.232C185.281 146.472 185.353 146.758 185.431 147.084C184.569 145.683 183.385 144.487 181.8 144.173C177.352 143.28 178.314 148.371 178.737 151.426C178.976 153.453 178.93 155.504 178.598 157.517L179.71 156.86C178.909 158.33 177.764 170.548 177.764 173.265C177.764 175.982 175.673 176.885 173.8 176.09C171.926 175.295 171.259 162.826 169.835 160.589C168.412 158.353 164.453 162.625 164.275 166.532C164.097 170.439 167.639 182.091 166.8 184.836C165.96 187.582 165.971 197.992 165.971 197.992L164.948 195.309C165.015 195.676 164.948 196.905 162.807 200.526C162.003 201.837 161.483 203.31 161.283 204.846C161.082 206.382 161.206 207.944 161.645 209.426C162.952 212.395 169.58 220.22 170.692 221.027C170.692 221.027 171.498 217.629 174.028 218.533C173.166 219.942 172.539 221.488 172.171 223.109C171.648 225.603 176.924 227.198 178.576 229.572C179.588 231.019 180.266 235.43 186.426 246.269Z" fill="white"/>
<path opacity="0.4" d="M217.552 236.808C212.348 231.414 203.19 226.278 203.746 224.933C204.491 223.126 203.546 219.276 201.945 216.153C200.344 213.03 202.501 207.962 202.501 207.962L203.49 210.908C204.282 207.51 204.375 203.98 203.763 200.543C202.751 194.703 201.961 196.757 201.961 196.757C201.961 196.757 202.167 191.494 203.073 188.623C203.98 185.751 204.741 178.779 203.49 174.655C202.239 170.53 199.598 171.308 198.892 172.727C198.186 174.145 198.942 179.677 199.526 181.49C200.11 183.303 197.625 186.352 197.575 184.087C197.525 181.822 196.585 175.507 196.585 175.507L198.47 162.826L196.585 152.753C196.585 152.753 197.369 149.126 199.209 150.07C201.05 151.014 201.278 155.624 201.405 157.638C201.533 159.651 202.868 172.601 203.073 172.624C203.279 172.647 205.403 179.374 205.114 183.818C204.508 193.33 206.109 200.406 206.165 204.055C206.22 207.705 203.546 216.159 203.546 216.159C203.641 216.325 205.386 219.379 205.865 222.062C206.215 224.03 212.448 231.14 217.541 236.797L217.552 236.808Z" fill="white"/>
<path opacity="0.4" d="M196.006 151.225C196.112 151.511 196.201 151.746 196.268 151.935C194.5 147.708 191.486 149.017 190.952 150.219C190.419 151.42 192.215 158.873 192.62 160.028C193.026 161.184 191.008 170.41 190.713 173.465C190.419 176.519 189.635 177.143 189.635 177.143C187.639 177.297 187.411 171.629 187.411 170.851C187.449 171.502 187.573 172.144 187.778 172.761L189.257 157.575C189.257 157.575 186.816 145.86 187.511 144.173C188.206 142.485 191.481 144.35 191.87 145.013C192.259 145.677 195.439 149.692 196.006 151.225Z" fill="white"/>
<path d="M224.184 244.244C223.806 243.363 206.442 225.368 205.836 222.062C205.347 219.305 203.512 216.153 203.512 216.153C203.512 216.153 206.187 207.716 206.131 204.05C206.075 200.383 204.463 193.325 205.08 183.812C205.369 179.368 203.251 172.641 203.04 172.618C202.828 172.595 201.494 159.645 201.372 157.632C201.249 155.618 201.021 151.008 199.175 150.064C197.33 149.12 196.551 152.747 196.551 152.747L195.995 151.214C195.439 149.681 192.248 145.666 191.858 145.002C191.469 144.339 188.2 142.468 187.499 144.161C186.799 145.854 189.24 157.54 189.24 157.54L187.772 172.744C186.821 170.456 187.494 159.468 187.577 157.483C187.661 155.498 185.047 145.357 185.047 145.357C185.047 145.357 183.48 140.14 183.113 139.202C182.746 138.264 181.517 136.136 178.181 137.08C175.762 137.766 176.802 144.985 176.802 144.985L177.358 156.997C176.985 160.806 176.802 169.941 176.802 169.941C176.802 169.941 175.001 172.876 173.989 172.098C172.977 171.32 170.92 160.423 169.824 156.654C168.729 152.884 167.45 144.739 166.027 141.496C165.593 140.512 164.042 139.911 162.307 141.341C160.572 142.771 162.018 158.078 162.046 162.471C162.074 166.864 164.22 175.484 164.22 175.484C164.22 175.484 162.179 179.191 160.233 180.632C158.287 182.073 155.863 184.956 156.708 188.011C157.553 191.065 157.993 204.027 159.911 208.179C161.829 212.332 170.38 223.051 171.514 225.911C171.898 226.872 176.379 231.283 179.904 236.39C186.827 246.418 194.916 259.842 194.916 260.071" stroke="#263238" stroke-linecap="round" stroke-linejoin="round"/>
<path d="M164.214 175.513C164.214 175.513 165.593 182.542 165.543 183.721C165.543 183.721 164.337 189.149 164.326 192.667C163.481 193.992 162.724 195.374 162.057 196.802C161.59 198.072 160.756 201.195 161.101 202.934" stroke="#263238" stroke-linecap="round" stroke-linejoin="round"/>
<path d="M161.696 185.9C161.696 185.9 165.076 185.929 164.859 187.393" stroke="#263238" stroke-linecap="round" stroke-linejoin="round"/>
<path d="M164.326 192.667C164.326 192.667 162.157 191.7 161.396 192.999" stroke="#263238" stroke-linecap="round" stroke-linejoin="round"/>
<path d="M176.808 169.964C176.808 169.964 176.652 175.352 175.273 174.923" stroke="#263238" stroke-linecap="round" stroke-linejoin="round"/>
<path d="M187.772 172.744C187.772 172.744 187.372 175.69 188.45 176.599" stroke="#263238" stroke-linecap="round" stroke-linejoin="round"/>
<path d="M196.568 152.758C196.568 152.758 198.069 160.194 198.414 161.956C198.759 163.718 196.707 172.71 196.746 175.049C196.785 177.389 197.758 180.735 197.624 182.308" stroke="#263238" stroke-linecap="round" stroke-linejoin="round"/>
<path d="M202.562 209.232C202.562 209.232 202.078 214.088 203.529 216.165" stroke="#263238" stroke-linecap="round" stroke-linejoin="round"/>
<path d="M173.41 218.842C173.41 218.842 170.174 221.873 171.359 225.603" stroke="#263238" stroke-linecap="round" stroke-linejoin="round"/>
<path d="M194.678 181.044C194.728 183.183 193.51 185.677 193.382 188.634" stroke="#263238" stroke-linecap="round" stroke-linejoin="round"/>
<path d="M184.369 179.133C185.059 180.884 183.558 184.693 183.33 186.123C183.238 187.242 183.357 188.368 183.68 189.441" stroke="#263238" stroke-linecap="round" stroke-linejoin="round"/>
<path d="M203.746 185.162C203.468 187.021 202.189 188.348 201.944 194.068" stroke="#263238" stroke-linecap="round" stroke-linejoin="round"/>
<path d="M172.176 178.59C173.11 179.637 172.482 184.636 172.732 185.454" stroke="#263238" stroke-linecap="round" stroke-linejoin="round"/>
<path d="M189.596 149.79C189.596 149.79 192.776 147.393 195.512 150.219" stroke="#263238" stroke-linecap="round" stroke-linejoin="round"/>
<path d="M178.643 144.281C178.643 144.281 179.199 143.326 181.884 143.561C184.57 143.795 185.048 145.351 185.048 145.351" stroke="#263238" stroke-linecap="round" stroke-linejoin="round"/>
<path d="M170.798 160.612C170.798 160.612 169.897 159.245 167.523 159.697C165.149 160.149 164.092 163.603 164.092 163.603" fill="white"/>
<path d="M170.798 160.612C170.798 160.612 169.897 159.245 167.523 159.697C165.149 160.149 164.092 163.603 164.092 163.603" stroke="#263238" stroke-linecap="round" stroke-linejoin="round"/>
<path d="M203.056 172.63C203.056 172.63 201.077 169.678 198.697 170.942" stroke="#263238" stroke-linecap="round" stroke-linejoin="round"/>
<path opacity="0.2" d="M118.734 151.008C122.07 153.668 119.256 169.993 119.256 169.993L119.551 175.307L125.272 172.744L127.88 184.098C127.88 184.098 127.813 188.257 129.931 189.818C129.931 189.818 130.454 199.147 129.931 205.966C129.409 212.784 118.811 220.798 115.158 227.953C111.506 235.109 87.681 256.142 87.681 256.142L67.5093 246.269L82.0932 185.671L95.1592 168.391L102.904 148.514C102.904 148.514 104.233 161.498 103.46 170.25L118.734 151.008Z" fill="black" fill-opacity="0.7"/>
<path d="M124.349 187.273C123.843 189.778 125.061 203.512 124.85 205.365C124.638 207.218 114.019 219.665 113.485 220.609C112.951 221.553 105.851 225.757 104.2 227.765C96.4824 237.025 92.2679 245.554 88.8819 254.105C88.2314 255.753 87.6086 257.406 86.997 259.065L56.3726 240.761C58.9468 237.477 61.3766 234.56 63.6006 231.906C68.0486 226.523 71.5903 222.216 73.325 218.149C73.8574 217.111 74.4671 216.117 75.1487 215.175C75.8381 214.168 76.4553 213.339 76.4553 213.339C76.4553 213.339 74.2313 206.892 74.7484 204.868C75.2654 202.843 74.109 186.197 74.109 186.197C74.109 186.197 72.6022 174.866 71.1177 172.006C70.7531 171.259 70.5881 170.426 70.6395 169.592C70.7118 166.978 72.1852 163.684 72.908 159.868C73.8754 154.72 73.4084 152.175 76.4442 153.954C79.4799 155.733 78.0621 166.538 78.0621 166.538L82.6491 176.994C83.8556 174.466 82.6491 167.087 82.588 165.342C82.588 165.056 82.588 164.582 82.5435 163.964C82.449 160.955 82.2544 154.692 82.5046 152.221C82.5046 152.083 82.5046 151.958 82.549 151.843C82.9216 149.292 84.2504 141.175 85.0955 140.272C86.3521 138.933 88.3481 137.806 90.2274 140.844C91.2782 142.56 90.8279 156.167 90.8279 156.167C90.8279 156.167 95.1869 150.756 96.5102 149.435C97.8335 148.114 101.848 145.7 102.921 148.497C103.994 151.294 100.035 159.937 100.035 159.937C100.864 161.939 100.964 167.482 100.964 167.482C100.964 167.482 102.837 174.409 103.988 174.346H104.038C104.372 174.271 104.739 173.013 105.123 171.245C106.068 166.915 107.096 159.508 107.903 158.862L108.459 158.404C108.484 158.371 108.514 158.342 108.548 158.318L108.753 158.129C110.722 156.328 114.869 152.324 114.869 152.324C114.869 152.324 115.164 150.407 118.795 150.997C122.425 151.586 117.182 162.608 117.182 162.608C116.454 166.115 115.336 175.135 115.336 175.135C114.997 178.887 115.197 188.972 115.197 188.972C115.197 188.972 116.915 183.103 116.804 180.964C116.693 178.824 120.218 173.585 121.252 172.235C122.286 170.885 126.901 171.36 125.617 173.951C124.332 176.542 124.855 184.756 124.349 187.273Z" fill="white"/>
<path opacity="0.4" d="M73.3084 218.172C73.8408 217.134 74.4505 216.139 75.1321 215.198C75.1321 215.198 73.3251 220.346 73.1472 223.086C73.0304 224.893 68.4045 228.022 63.584 231.929C68.0598 226.546 71.5737 222.239 73.3084 218.172Z" fill="white"/>
<path opacity="0.4" d="M75.1321 215.198C75.8215 214.191 76.4387 213.362 76.4387 213.362C76.4387 213.362 74.2147 206.915 74.7318 204.89C75.2488 202.865 74.0924 186.22 74.0924 186.22C74.0924 186.22 72.5856 174.889 71.1011 172.029L74.5594 178.247C74.5594 178.247 74.2202 183.16 75.2044 185.854C76.1885 188.548 77.4283 196.768 77.4283 196.768C77.4283 196.768 75.9716 203.678 76.4665 206.166C76.9613 208.654 79.1909 207.75 79.1909 207.75C79.1909 207.75 80.2862 212.303 75.1321 215.198Z" fill="white"/>
<path opacity="0.4" d="M83.1998 168.391C85.585 182.76 81.4762 178.784 79.9916 175.684C78.5071 172.584 75.021 166.715 72.3967 167.968C71.6597 168.324 71.0423 168.897 70.623 169.615C70.6953 167.001 72.1687 163.706 72.8915 159.891C73.859 154.743 73.3919 152.198 76.4277 153.977C79.4635 155.756 78.0456 166.561 78.0456 166.561L82.6326 177.017C83.8392 174.489 82.6326 167.11 82.5715 165.365C82.5715 165.079 82.5715 164.604 82.527 163.987C82.7105 165.308 82.9329 166.778 83.1998 168.391Z" fill="white"/>
<path opacity="0.4" d="M89.038 154.194C89.038 154.194 86.4637 150.728 84.2286 150.905C83.8448 150.926 83.4754 151.063 83.1662 151.298C82.8569 151.533 82.6213 151.855 82.4883 152.226C82.4883 152.089 82.4883 151.963 82.5328 151.849C82.9053 149.298 84.2341 141.181 85.0792 140.277C86.3358 138.939 88.3318 137.812 90.2111 140.849C91.262 142.565 90.8116 156.173 90.8116 156.173C90.8116 156.173 95.1706 150.762 96.4939 149.441C97.8172 148.119 101.832 145.706 102.905 148.503C103.978 151.3 100.019 159.943 100.019 159.943C100.847 161.945 100.947 167.487 100.947 167.487C100.947 167.487 102.821 174.414 103.972 174.351C101.437 179.259 99.7465 168.408 99.7465 168.408C100.125 166.166 98.7791 161.304 98.9125 160.023C99.046 158.741 96.5773 154.211 92.4184 155.447C88.2596 156.682 91.262 173.591 91.262 173.591C90.4401 174.937 89.962 176.476 89.872 178.064C88.5876 176.433 89.872 171.772 89.872 171.772C88.7322 167.31 89.038 154.194 89.038 154.194Z" fill="white"/>
<path opacity="0.4" d="M108.42 158.387C106.646 160.303 106.891 165.148 105.084 171.228C106.029 166.898 107.058 159.491 107.864 158.844L108.42 158.387Z" fill="white"/>
<path opacity="0.4" d="M124.349 187.273C123.843 189.778 125.061 203.512 124.849 205.365C124.638 207.218 114.019 219.665 113.485 220.609C112.951 221.553 105.851 225.757 104.2 227.765C96.4824 237.025 92.2679 245.554 88.8818 254.105C90.1573 249.673 91.6966 245.325 93.4911 241.087C97.144 232.638 98.6341 231.134 100.825 228.72C103.015 226.306 102.776 221.175 102.776 221.175C104.393 220.775 106.05 220.573 107.714 220.575C110.494 220.575 118.722 208.505 121.552 206.389C124.382 204.273 124.888 204.273 121.552 199.605C118.216 194.938 119.162 200.354 118.161 200.177C117.16 200 116.615 202.253 116.615 202.253C116.265 197.494 113.279 191.957 112.651 190.573C112.023 189.189 114.174 181.072 113.729 178.813C113.285 176.553 115.642 162.797 115.642 162.797C115.642 162.797 115.347 157.517 110.699 157.5C109.986 157.46 109.281 157.678 108.709 158.118C110.677 156.316 114.825 152.312 114.825 152.312C114.825 152.312 115.119 150.396 118.75 150.985C122.381 151.574 117.138 162.597 117.138 162.597C116.409 166.103 115.292 175.123 115.292 175.123C114.953 178.876 115.153 188.96 115.153 188.96C115.153 188.96 116.871 183.091 116.76 180.952C116.648 178.813 120.174 173.573 121.208 172.223C122.242 170.874 126.857 171.348 125.572 173.939C124.288 176.531 124.855 184.756 124.349 187.273Z" fill="white"/>
<path d="M86.9917 259.116C90.7669 248.86 94.9869 238.85 104.2 227.793C105.868 225.814 112.946 221.61 113.485 220.638C114.024 219.665 124.644 207.241 124.85 205.394C125.055 203.546 123.843 189.807 124.349 187.301C124.855 184.796 124.266 176.536 125.545 173.962C126.823 171.388 122.209 170.919 121.18 172.246C120.151 173.573 116.638 178.859 116.732 180.975C116.827 183.091 115.125 188.983 115.125 188.983C115.125 188.983 114.925 178.899 115.264 175.146C115.264 175.146 116.376 166.126 117.11 162.62C117.11 162.62 122.348 151.591 118.723 151.008C115.097 150.425 114.797 152.335 114.797 152.335C114.797 152.335 109.009 157.929 107.864 158.844C106.719 159.76 105.156 174.06 104.005 174.328C102.854 174.597 100.931 167.464 100.931 167.464C100.931 167.464 100.83 161.922 100.002 159.92C100.002 159.92 103.955 151.3 102.888 148.48C101.82 145.66 97.8059 148.102 96.477 149.418C95.1482 150.733 90.7947 156.15 90.7947 156.15C90.7947 156.15 91.2451 142.531 90.1942 140.826C88.3149 137.778 86.3022 138.904 85.0623 140.254C84.2172 141.158 82.8884 149.275 82.5159 151.826C82.1433 154.377 82.5159 163.575 82.5548 165.325C82.5937 167.075 83.8225 174.449 82.6159 176.977L78.0289 166.521C78.0289 166.521 79.4523 155.704 76.411 153.937C73.3697 152.169 73.8423 154.72 72.8748 159.851C71.9074 164.982 69.6055 169.152 71.0845 172.018C72.5635 174.883 74.0758 186.209 74.0758 186.209C74.0758 186.209 75.2211 202.854 74.7152 204.879C74.2092 206.904 76.4388 213.356 76.4388 213.356C76.4388 213.356 73.8701 216.839 73.3085 218.166C70.7175 224.224 64.1623 230.848 56.3672 240.812" stroke="#263238" stroke-linecap="round" stroke-linejoin="round"/>
<path d="M90.8112 156.185C90.1655 157.167 89.8385 158.334 89.8771 159.519C89.8771 161.693 91.2615 173.591 91.2615 173.591C91.2615 173.591 90.2552 174.815 90.2051 175.879" stroke="#263238" stroke-linecap="round" stroke-linejoin="round"/>
<path d="M115.136 188.954C115.288 190.964 115.791 192.929 116.621 194.755C117.922 197.397 117.499 198.856 117.054 200.417C116.756 201.787 116.598 203.184 116.582 204.587" stroke="#263238" stroke-linecap="round" stroke-linejoin="round"/>
<path d="M83.1219 174.649C83.1219 174.649 84.0893 177.806 82.2935 179.305" stroke="#263238" stroke-linecap="round" stroke-linejoin="round"/>
<path d="M104.022 174.328C104.022 174.328 104.211 175.57 102.504 175.684" stroke="#263238" stroke-linecap="round" stroke-linejoin="round"/>
<path d="M115.486 160.028C115.486 160.028 111.205 155.224 107.88 158.844" stroke="#263238" stroke-linecap="round" stroke-linejoin="round"/>
<path d="M98.1395 157.329C98.1395 157.329 96.1657 154.76 94.4533 154.915C92.7408 155.069 90.4278 156.144 90.1665 157.557" stroke="#263238" stroke-linecap="round" stroke-linejoin="round"/>
<path d="M117.421 198.873C118.112 199.889 118.615 201.027 118.906 202.231" stroke="#263238" stroke-linecap="round" stroke-linejoin="round"/>
<path d="M106.301 179.345C104.973 181.89 105.606 186.209 105.117 187.393" stroke="#263238" stroke-linecap="round" stroke-linejoin="round"/>
<path d="M92.2239 175.118C92.5352 176.582 91.5511 178.967 91.401 180.723C91.2509 182.479 92.6464 185.191 92.3907 187.656" stroke="#263238" stroke-linecap="round" stroke-linejoin="round"/>
<path d="M83.1995 181.112C83.1995 181.112 82.0375 183.869 82.0875 185.688C82.1375 187.507 82.7658 191.494 82.7658 191.494" stroke="#263238" stroke-linecap="round" stroke-linejoin="round"/>
<path d="M74.6542 180.981C74.6542 180.981 74.2317 183.841 75.2102 185.854C76.1888 187.868 77.1395 192.146 77.1395 192.146" stroke="#263238" stroke-linecap="round" stroke-linejoin="round"/>
<path d="M76.439 213.356C76.9515 213.21 77.4095 212.909 77.7535 212.492C78.0976 212.074 78.3118 211.56 78.3683 211.016" stroke="#263238" stroke-linecap="round" stroke-linejoin="round"/>
<path d="M104.389 222.073C104.389 222.073 105.451 226.117 103.416 228.72" stroke="#263238" stroke-linecap="round" stroke-linejoin="round"/>
<path d="M70.6509 169.135C70.6509 169.135 73.6422 166.132 75.9051 168.666" stroke="#263238" stroke-linecap="round" stroke-linejoin="round"/>
<path d="M82.5327 151.849C82.5327 151.849 84.7567 149.452 87.3588 152.015" stroke="#263238" stroke-linecap="round" stroke-linejoin="round"/>
</svg>
